<?xml version="1.0" encoding="UTF-8"?>
<svg id="_Layer_" data-name="&amp;lt;Layer&amp;gt;" xmlns="http://www.w3.org/2000/svg" xmlns:xlink="http://www.w3.org/1999/xlink" viewBox="0 0 2124 2124">
  <defs>
    <style>
      .cls-1 {
        fill: url(#linear-gradient);
      }

      .cls-2 {
        fill: #d4effc;
        fill-rule: evenodd;
      }
    </style>
    <linearGradient id="linear-gradient" x1="-32.6" y1="2150.43" x2="2200.69" y2="-70.27" gradientUnits="userSpaceOnUse">
      <stop offset="0" stop-color="#0093ef"/>
      <stop offset=".26" stop-color="#21a7f4"/>
      <stop offset=".57" stop-color="#45befa"/>
      <stop offset=".83" stop-color="#5bcbfd"/>
      <stop offset=".99" stop-color="#64d1ff"/>
    </linearGradient>
  </defs>
  <rect class="cls-1" width="2124" height="2124"/>
  <g>
    <path class="cls-2" d="M0,294.95c2.28,4.23,4.66,8.42,7.16,12.56,17.45,28.85,40.7,55.24,74.65,74.9,40.03,23.18,70.21,18.82,100.78,14.42,21.5-3.1,43.2-6.23,68.72-.22,10.25,2.41,19.35,4.84,27.69,7.06,40.95,10.92,63.29,16.88,122.83-6.94,35.94-14.37,56.57-24.22,71.66-37.55,15.06-13.29,24.89-30.29,39.22-58.95,11.63-23.26,26.06-40.09,38.58-54.7,18.45-21.52,32.63-38.07,26.4-62.98-8.14-32.57-14.2-35.65-42.8-50.18h-.01c-8.5-4.32-18.94-9.63-31.97-16.95-23.15-13.02-42.86-18.46-60.69-23.38-26.96-7.44-49.78-13.74-74.04-42.42-7.74-9.15-13.88-16.6-18.94-22.75-10.14-12.31-15.86-19.25-23.93-26.87h7.65c6.32,6.4,11.8,13.04,20.4,23.48,4.91,5.96,10.86,13.18,18.9,22.68,23.21,27.43,45.3,33.52,71.39,40.72,18.15,5.01,38.2,10.54,61.89,23.86,12.88,7.25,23.29,12.54,31.77,16.85h0c30.4,15.45,36.84,18.73,45.57,53.65,6.9,27.58-8.07,45.04-27.53,67.74-12.34,14.39-26.55,30.98-37.87,53.62-14.64,29.28-24.73,46.69-40.46,60.56-15.69,13.84-36.71,23.91-73.21,38.51-61.19,24.48-84.13,18.36-126.17,7.15-8.26-2.2-17.27-4.6-27.54-7.02-24.55-5.78-45.75-2.72-66.75,.31-31.48,4.54-62.57,9.02-104.21-15.09-34.85-20.18-58.69-47.22-76.56-76.76-.87-1.45-1.74-2.91-2.59-4.37v-10.95Z"/>
    <path class="cls-2" d="M1471.06,2079.6c-13.72-33.41-28.56-68.8-50.3-99.92-21.63-30.97-50.17-57.84-91.38-74.5-48.69-19.68-84.88-8.35-121.54,3.11-25.66,8.03-51.55,16.13-82.22,14.1-12.29-.81-23.3-1.88-33.39-2.86-49.51-4.81-76.52-7.43-147.61,33.21-42.86,24.5-67.44,40.51-85.35,59.61-17.85,19.06-29.27,41.47-45.82,78.76-5.32,12-11.21,22.88-17.29,32.89h-6.27c6.59-10.6,12.97-22.18,18.67-35.04,16.79-37.85,28.42-60.62,46.82-80.27,18.36-19.6,43.26-35.83,86.58-60.59,72.55-41.47,100.16-38.79,150.77-33.88,9.93,.96,20.77,2.02,33.22,2.84,29.69,1.95,55.1-5.99,80.3-13.87,37.57-11.75,74.66-23.35,125.11-2.96,42.32,17.1,71.6,44.65,93.77,76.4,22.07,31.6,37.04,67.27,50.86,100.95,14.29,34.82,34.16,34.35,58.87,33.76,18.93-.44,40.53-.95,64.68,12.68h-12.12c-19.24-8.12-36.79-7.71-52.43-7.34-26.75,.63-48.25,1.13-63.93-37.07Z"/>
    <path class="cls-2" d="M456.4,158.69c-15.7-8.83-29.35-13.32-42.48-17.64h0c-26.51-8.72-50.88-16.74-85.56-57.73-7.31-8.64-14.55-18.19-21.95-27.96-14.69-19.38-30.06-39.68-47.96-55.36h4.07c17.07,15.54,31.86,35.05,46.03,53.75,7.39,9.75,14.61,19.28,21.86,27.85,34.19,40.41,58.22,48.31,84.36,56.91h0c13.25,4.36,27.04,8.9,42.95,17.85,1.82,1.03,3.83,2.1,5.94,3.24,7.85,4.21,17.25,9.25,24.41,15.45,11.25,9.73,16.97,22.11,3.12,38.12-6.4,7.41-13.86,16.14-21.46,26.52-7.59,10.35-15.31,22.32-22.24,36.19-6.78,13.55-10.47,23.48-13.34,31.16-7.84,21.05-9.57,25.69-49.13,41.51-47.53,19.01-61.69,15.34-98.72,5.76-6.88-1.78-14.57-3.77-23.63-5.9-16.6-3.9-31.48-5.02-46.32-4.58-14.86,.44-29.74,2.44-46.25,4.77-12.63,1.78-22.7,2.85-32.52,1.82-9.87-1.04-19.42-4.19-30.95-10.86-26.51-15.35-44.85-36.64-59.03-60.89-14.13-24.17-24.12-51.27-33.97-78.38-2.28-6.27-4.02-12.12-5.63-17.56-2.45-8.23-4.6-15.51-7.99-21.86v-5.31c4.92,7.43,7.52,16.21,10.55,26.41,1.6,5.39,3.32,11.19,5.58,17.4,9.81,26.98,19.75,53.96,33.77,77.94,13.97,23.9,32.01,44.85,58.06,59.93,11.17,6.47,20.39,9.52,29.88,10.52,9.54,1,19.44-.06,31.89-1.81,16.57-2.33,31.51-4.34,46.54-4.79,15.06-.44,30.17,.68,47,4.64,8.83,2.08,16.68,4.11,23.69,5.92,36.42,9.42,50.34,13.02,97.06-5.66,38.47-15.38,40.12-19.82,47.62-39.97,2.88-7.73,6.6-17.72,13.45-31.42,7.02-14.05,14.82-26.14,22.47-36.58,7.64-10.42,15.15-19.22,21.6-26.68,12.47-14.42,7.3-25.58-2.85-34.36-6.93-5.99-16.19-10.96-23.93-15.12-2.14-1.15-4.16-2.24-5.98-3.26h0ZM85.2,0h-5.91C62.6,8.38,46.12,16.26,27.81,23.75c-10.64,4.35-19.57,7.78-27.81,10.17v2.77c8.54-2.43,17.77-5.96,28.81-10.48C48.95,17.98,66.84,9.29,85.2,0Z"/>
    <path class="cls-2" d="M1417.22,2124c-1.43-4.13-2.99-8.43-4.82-12.89-12.44-30.3-25.03-60.57-42.44-86.42-17.34-25.75-39.5-47.17-71.11-59.95-13.58-5.49-24.74-7.27-36.18-6.55-11.5,.73-23.37,4-38.29,8.61-19.82,6.14-37.7,11.56-55.67,15.12-18.02,3.56-36.15,5.25-56.43,3.92-10.68-.71-20.12-1.55-28.57-2.3-43.99-3.93-60.81-5.43-116.52,26.42-45.98,26.28-47.87,31.96-56.43,57.75-3.27,9.85-7.49,22.56-15.34,40.25-2.46,5.55-5.02,10.9-7.63,16.05h-3c2.81-5.48,5.55-11.19,8.18-17.13,7.83-17.65,12.02-30.26,15.25-40.01,8.83-26.59,10.78-32.44,57.63-59.23,56.43-32.26,73.48-30.74,118.08-26.75,8.32,.75,17.6,1.58,28.51,2.3,20.02,1.32,37.93-.36,55.75-3.88,17.87-3.53,35.66-8.93,55.4-15.04,15.1-4.67,27.13-7.98,38.9-8.73,11.84-.75,23.36,1.09,37.34,6.74,32.19,13.01,54.72,34.78,72.33,60.94,17.55,26.06,30.2,56.46,42.69,86.89,1.98,4.82,3.65,9.47,5.17,13.9h-2.82Z"/>
    <path class="cls-2" d="M397.82,219.3c1.19-1.96,2.08-4,2.66-6.06,1.44-5.08,1.09-10.33-.75-14.98-1.84-4.66-5.19-8.74-9.71-11.5h0c-1.85-1.13-3.92-2.04-6.18-2.68-5.81-1.65-11.69-3.35-17.6-5.17-5.87-1.81-11.6-3.69-16.99-5.68-36.05-13.29-59.26-36.41-84-61.05-13.63-13.57-27.73-27.62-44.66-40.64-56.51-43.47-85.66-30.12-130.24-9.69-13.7,6.28-28.82,13.2-46.59,19.42-3.36,1.17-6.25,2.97-8.61,5.19-3.44,3.23-5.78,7.37-6.86,11.8-1.09,4.45-.93,9.2,.63,13.66,1.07,3.06,2.8,5.99,5.24,8.58,8.08,8.6,14.37,17.85,19.69,27.87,5.27,9.93,9.61,20.65,13.84,32.26,1.19,3.29,2.2,6.1,3.24,9.02,15.37,43.12,38.96,109.34,91.18,101.99,20.15-2.83,38.27-5.05,56.55-5.35,18.32-.31,36.68,1.31,57.18,6.13,69.14,16.27,77.64,1.86,108.92-51.2h0c4-6.78,8.36-14.17,13.07-21.92h0Zm7.8-4.62c-.71,2.52-1.79,5.01-3.25,7.4-4.9,8.06-9.15,15.25-13.03,21.84h0c-32.85,55.73-41.77,70.86-114.73,53.69-20.07-4.72-38.01-6.3-55.89-6-17.92,.3-35.89,2.5-55.9,5.31-56.52,7.95-81-60.76-96.95-105.5-1.19-3.34-2.34-6.55-3.22-8.98-4.13-11.35-8.37-21.84-13.54-31.57-5.12-9.65-11.14-18.52-18.85-26.72-2.97-3.16-5.08-6.74-6.4-10.49-1.9-5.44-2.1-11.24-.78-16.67,1.33-5.43,4.19-10.49,8.39-14.44,2.89-2.71,6.42-4.91,10.52-6.34,17.55-6.13,32.54-13.01,46.12-19.23,46.35-21.24,76.65-35.11,135.72,10.32,17.2,13.23,31.42,27.39,45.16,41.08,24.31,24.21,47.11,46.93,82.07,59.82,5.41,1.99,11.03,3.84,16.72,5.6,5.66,1.74,11.57,3.45,17.47,5.13,2.71,.77,5.23,1.88,7.51,3.27h0c5.55,3.38,9.65,8.38,11.91,14.09,2.26,5.71,2.69,12.15,.92,18.39Z"/>
    <path class="cls-2" d="M1343.33,2124c-19.59-48.05-49.58-112.2-108.29-94.04-24.1,7.46-45.79,13.76-67.63,17.8-21.91,4.05-43.94,5.82-68.62,4.19-79.02-5.22-92.43,11.4-124.18,72.04h-6.03c33.96-65.09,47.02-82.9,130.54-77.38,24.23,1.6,45.84-.13,67.32-4.1,21.56-3.99,43.08-10.24,67.02-17.65,64.09-19.83,95.32,49.08,115.63,99.14h-5.77Z"/>
    <path class="cls-2" d="M175.91,234.15c13.04-1.74,21.59-4.28,28.85-6.44,13.93-4.15,23.18-6.9,49.76-.21,5.74,1.44,11.88,3.29,18.11,5.16,4.88,1.46,9.8,2.94,14.71,4.27,2.49,.68,4.89,.94,7.25,.77,2.36-.16,4.71-.75,7.09-1.77,20.24-8.61,26.11-15.16,23.53-21.24-2.83-6.66-15.17-13.37-30.15-21.5-18.82-10.22-41.72-22.67-55.99-40.71-1.89-2.4-3.91-5.06-6.18-8.06-17.61-23.28-50.47-66.73-74.61-55.74-30.67,13.96-40.3,33.68-38.12,56.66,2.21,23.3,16.45,50.07,33.33,77.68,2.51,4.11,5.86,7.2,9.71,9.11,3.84,1.9,8.19,2.64,12.72,2.03h0Zm29.61-3.88c-7.33,2.18-15.97,4.75-29.26,6.53-5.06,.67-9.94-.15-14.25-2.28-4.3-2.13-8.03-5.56-10.81-10.11-17.05-27.89-31.44-54.99-33.71-78.82-2.3-24.14,7.72-44.8,39.67-59.34,26.08-11.88,59.79,32.68,77.85,56.55,2.4,3.17,4.52,5.98,6.14,8.02,13.92,17.61,36.57,29.92,55.18,40.03,15.42,8.38,28.13,15.29,31.33,22.8,3.25,7.65-2.89,15.37-24.94,24.75-2.66,1.13-5.3,1.79-7.96,1.97-2.66,.18-5.35-.1-8.12-.86-4.8-1.3-9.81-2.81-14.77-4.29-6.19-1.86-12.3-3.69-17.99-5.12-25.87-6.51-34.84-3.84-48.35,.18Z"/>
    <path class="cls-2" d="M1219.75,2101.78c-15.69,4.74-25.88,9.5-34.52,13.54-7.8,3.65-14.36,6.72-22.47,8.67h-51.61c-2.41-.3-4.84-.62-7.29-.93h0c-5.9-.77-11.87-1.55-17.75-2.15-3.01-.3-5.93-.13-8.8,.55-2.24,.54-4.46,1.37-6.69,2.53h-5.31c.66-.41,1.33-.81,2.02-1.22,3.12-1.87,6.22-3.17,9.36-3.92,3.15-.75,6.36-.94,9.69-.6,5.83,.6,11.85,1.38,17.82,2.16h0c7.43,.97,14.76,1.92,21.72,2.5,31.27,2.57,42.01-2.44,58.17-10.01,8.75-4.08,19.07-8.91,34.87-13.69h0c6-1.81,11.82-1.81,17.02-.13,5.21,1.68,9.78,5.04,13.23,9.93,3.54,5.01,6.99,9.99,10.29,14.98h-3.21c-2.99-4.47-6.09-8.95-9.26-13.45-3.11-4.4-7.2-7.41-11.86-8.91-4.67-1.51-9.96-1.5-15.43,.15h0Z"/>
    <path class="cls-2" d="M581.84,438.08c-6.75,6.08-12.96,11.35-18.5,16.05-31.5,26.73-40.56,34.42-19.05,86.69,13.29,32.28,23.11,47.94,31.02,60.56,7.65,12.21,13.56,21.63,19.07,40.01,6.34,21.12,6,46.22,5.66,71.03-.59,43.67-1.17,86.38,35.7,101.91,8.25,3.48,14.27,6.03,19.84,8.4,53.08,22.58,67.07,28.53,116.6,28.53,28.03,0,43.92,0,58.43-.46h.01c14.69-.46,28.61-1.39,52.82-3.25,24.42-1.88,48.89-.93,70.14,5.21,21.51,6.21,39.71,17.73,51.24,36.95,7.62,12.7,16.19,22.83,24.72,32.92,16.36,19.35,32.59,38.54,42.45,75.52,12.69,47.6,30.87,95.31,42.81,126.66,1.73,4.54,3.31,8.69,5.41,14.28,3.82,10.17,5.9,18.94,7.84,27.13,3.76,15.86,7.02,29.57,21.41,46.37,5.07,5.92,11.89,11.67,19.99,17.07h0c24.91,16.6,61.74,29.74,97.66,34.19,35.65,4.43,70.28,.29,91.1-17.56,3.79-3.25,7.13-6.96,9.92-11.15h0c23.45-35.18,31.38-54.81,38.57-72.62,6.5-16.11,12.42-30.75,28.34-53.75,14.5-20.95,38.32-34.54,62.72-48.46,32.42-18.49,65.92-37.6,78.45-75.17,10.37-31.1,14.21-48.14,17.25-61.6,3.52-15.56,5.97-26.43,15.97-48.43,6.68-14.71,15.18-26.94,23.9-39.48,15.63-22.48,31.97-45.99,39.06-86.21l.16-.91c10.93-61.92,18.03-102.14-18.15-145.55-14.25-17.1-19.39-32.51-24.06-46.52-7.43-22.3-13.63-40.9-56.56-56.71-68.26-25.15-78.58-67.18-89.12-110.1-.5-2.03-1.02-4.13-1.72-6.94-1.45-5.8-2.84-11.98-4.23-18.15-8.65-38.44-17.35-77.06-61.25-99.01-14.63-7.31-25.69-14.86-35.54-21.58-24.88-16.97-41.76-28.48-88.88-15.39-16.09,4.47-27.79,7.2-37.43,9.46-30.56,7.14-40.32,9.42-99.36,45.97-10.21,6.32-20.35,12.71-29.98,18.77-60.65,38.2-99.91,62.93-142.53,59.65-25.81-1.98-51.69-10.65-76.45-18.95-21.86-7.32-42.85-14.35-61.83-16.08-84.79-7.7-98.1,7.39-123.82,36.59-13.41,15.22-30.1,34.16-61.27,55.71-13.45,9.29-33.06,10.94-49.94,12.36-12.95,1.08-24.2,2.03-28.63,6.01h0Zm-21.95,11.97c5.46-4.63,11.57-9.82,18.38-15.94,5.77-5.19,17.86-6.21,31.76-7.37,16.23-1.36,35.09-2.94,47.35-11.42,30.59-21.15,47.06-39.84,60.28-54.85,26.9-30.53,40.81-46.32,128.32-38.37,19.62,1.78,40.89,8.91,63.04,16.33,24.44,8.18,49.98,16.74,75.15,18.67,40.88,3.14,79.56-21.22,139.29-58.84,9.27-5.84,19.06-12,30.02-18.79,59.81-37.02,69.77-39.35,100.95-46.64,9.68-2.26,21.42-5.01,37.22-9.4,49.51-13.75,67.22-1.68,93.32,16.12,9.74,6.64,20.68,14.1,34.92,21.22,46.17,23.08,55.14,62.93,64.07,102.6,1.34,5.93,2.67,11.87,4.21,18.03,.46,1.82,1.08,4.37,1.72,6.96,10.2,41.52,20.19,82.19,85.78,106.36,45.32,16.7,51.89,36.42,59.77,60.06,4.52,13.55,9.49,28.45,23.09,44.78,37.77,45.33,30.51,86.5,19.32,149.88l-.16,.91c-7.31,41.39-23.99,65.39-39.94,88.35-8.59,12.34-16.96,24.4-23.42,38.62-9.79,21.54-12.19,32.17-15.63,47.41-3.06,13.55-6.93,30.7-17.4,62.09-13.18,39.53-47.58,59.16-80.87,78.15-23.86,13.61-47.15,26.89-60.96,46.85-15.58,22.5-21.39,36.88-27.78,52.7-7.3,18.07-15.35,38.01-39.07,73.58h0c-3.08,4.62-6.74,8.69-10.89,12.25-22.1,18.94-58.23,23.41-95.23,18.82-36.72-4.55-74.43-18.02-99.98-35.06h0c-8.5-5.68-15.69-11.75-21.08-18.04-15.25-17.79-18.65-32.09-22.56-48.61-1.92-8.11-3.98-16.77-7.63-26.51-1.09-2.9-3.15-8.31-5.41-14.23-11.97-31.43-30.2-79.26-42.98-127.2-9.55-35.8-25.39-54.54-41.36-73.43-8.66-10.24-17.37-20.53-25.23-33.63-10.76-17.93-27.86-28.71-48.15-34.57-20.54-5.94-44.38-6.84-68.26-5.01-24.08,1.85-38.03,2.77-53.06,3.25-15.2,.48-30.9,.48-58.6,.48-50.59,0-64.78-6.04-118.69-28.97-6.56-2.79-13.69-5.82-19.82-8.4-40.18-16.92-39.58-61.4-38.96-106.88,.33-24.38,.66-49.06-5.45-69.44-5.32-17.73-11.05-26.87-18.47-38.71-8.03-12.81-17.99-28.71-31.44-61.36-23-55.85-13.27-64.11,20.53-92.79Z"/>
    <path class="cls-2" d="M640.81,508.77c-19.51,6.94-14.91,32.89-5.62,58.98,3.84,10.8,8.53,21.69,12.67,31.31,4.05,9.43,7.58,17.64,9.34,23.48,7.46,24.89,5.22,52.59,3.25,76.86-2.06,25.44-3.82,47.05,6.3,56.94,30.12,29.45,57.3,29.41,99.82,29.36h5.64c18.45,0,35.83-.18,53.19-.7,17.29-.52,34.62-1.41,53.05-2.82,37.96-2.92,77.28,.09,111.47,13.88,28.57,11.52,53.54,30.56,71.16,59.92,8.79,14.64,18.39,27.48,27.8,40.06,18.85,25.19,36.96,49.4,46.5,85.21,7.03,26.38,15.12,41.87,23.88,58.65,6.58,12.61,13.55,25.95,20.74,45.14,1.33,3.54,2.43,6.53,3.5,9.46,15.78,42.93,31.07,84.52,90.5,83.48,33.22-.57,50.97-33.27,72.75-73.41,9.99-18.42,20.83-38.38,34.43-57.62,23.83-33.69,56.73-47.47,83.08-58.51,20.63-8.64,37.17-15.57,41.63-28.94,6.7-20.1,13.27-38.29,20.35-56.27,7.1-18.01,14.74-35.87,23.54-55.25,7.08-15.56,16.38-29.28,25.54-42.81,14.16-20.88,27.98-41.28,32.55-67.14,1.18-6.69,4.42-16.65,8.01-27.64,6.67-20.48,14.52-44.56,12.02-56.65-1.78-8.62-6.73-15.09-13.16-23.47-8.1-10.58-18.49-24.15-28-48.9-11.96-31.14-35.22-45.3-60.16-60.49-30.49-18.57-63.46-38.65-81.95-92.62-3.18-9.28-6.38-20.87-9.35-32.64-2.95-11.69-5.7-23.67-7.96-33.72-.52-2.29-.96-4.41-1.42-6.58h0c-3.74-17.67-7.93-37.48-24.65-45.83-7.43-3.72-14.51-7.7-21.41-11.9-6.91-4.21-13.68-8.66-20.5-13.3-23.2-15.81-52.31-6.16-79.21,2.76-4.93,1.64-9.79,3.25-14.24,4.6-16.85,5.1-38.43,18.64-54.98,29.01h0c-2.59,1.62-5.08,3.19-7.03,4.39-11.69,7.24-24.2,15.6-37.29,24.34-56.86,37.99-124.63,83.26-187.83,78.4-34.37-2.64-64.45-12.96-90.19-21.79-18.69-6.41-35.08-12.04-48.99-13.3-36.78-3.34-67.8,24.11-96.44,49.44-11.06,9.79-21.77,19.26-32.37,26.59-2.6,1.8-6.16,4.28-9.44,6.57-22.9,15.96-34.94,24.35-60.51,33.46h0Zm-8.14,59.87c-9.75-27.39-14.34-54.7,7.25-62.39,25.22-8.98,37.17-17.3,59.87-33.13,2.62-1.83,5.33-3.72,9.45-6.57,10.47-7.24,21.12-16.66,32.12-26.39,29.05-25.7,60.51-53.54,98.44-50.1,14.27,1.29,30.78,6.96,49.62,13.42,25.59,8.78,55.5,19.04,89.52,21.66,62.29,4.79,129.64-40.2,186.14-77.95,13.09-8.74,25.6-17.11,37.37-24.39,2.47-1.53,4.68-2.92,7.02-4.38h0c16.69-10.47,38.46-24.12,55.63-29.32,4.83-1.46,9.47-3,14.18-4.56,27.5-9.12,57.26-18.99,81.55-2.44,6.78,4.62,13.51,9.04,20.38,13.23,6.88,4.19,13.89,8.14,21.21,11.8,17.88,8.94,22.21,29.4,26.07,47.67h0c.48,2.29,.96,4.56,1.41,6.55,2.24,9.95,4.97,21.86,7.95,33.65,2.96,11.72,6.14,23.25,9.29,32.44,18.17,53.05,50.71,72.86,80.81,91.2,25.33,15.43,48.96,29.82,61.26,61.82,9.37,24.37,19.63,37.78,27.64,48.23,6.62,8.65,11.74,15.33,13.64,24.56,2.65,12.78-5.32,37.22-12.09,58.01-3.54,10.88-6.77,20.76-7.91,27.27-4.66,26.41-18.65,47.06-32.97,68.18-9.09,13.41-18.32,27.03-25.31,42.41-8.79,19.34-16.41,37.15-23.49,55.13-7.1,18.02-13.66,36.17-20.31,56.13-4.84,14.53-21.88,21.67-43.13,30.57-26.03,10.91-58.54,24.52-81.92,57.58-13.49,19.07-24.3,39-34.26,57.36-22.18,40.89-40.26,74.2-75.05,74.8-61.34,1.07-76.95-41.4-93.06-85.23-1.24-3.37-2.46-6.7-3.49-9.45-7.14-19.05-14.07-32.31-20.61-44.84-8.84-16.93-16.99-32.55-24.1-59.21-9.41-35.31-27.36-59.31-46.05-84.3-9.45-12.64-19.1-25.54-27.95-40.29-17.29-28.82-41.82-47.5-69.87-58.82-33.77-13.62-72.67-16.58-110.28-13.69-18.37,1.41-35.74,2.29-53.17,2.82-17.36,.53-34.76,.7-53.26,.7h-5.64c-43.18,.06-70.79,.09-101.68-30.11-11.02-10.77-9.22-32.95-7.1-59.06,1.95-24.04,4.18-51.48-3.14-75.89-1.7-5.68-5.21-13.83-9.23-23.19-4.14-9.62-8.83-20.53-12.73-31.48Z"/>
    <path class="cls-2" d="M732.43,565.51c13.38,37.23,11.26,67.64,9.61,91.42-2.74,39.38-4.15,59.53,77.52,60.54,15.85,.19,29.46-1.07,52.9-3.24,14.75-1.37,33.33-3.09,57.88-4.98,67.18-5.16,122.4,13.51,165.56,48.15,47.99,38.51,80.98,96.74,98.87,163.84,23.89,89.61,44.31,130.35,69.25,132.62,25,2.27,55.85-33.84,100.23-97.94,16.58-23.95,34.47-32.61,52.08-41.12,30.88-14.93,60.88-29.44,80.29-131.5,3.82-20.1,14.13-36.88,24.02-52.97,20.21-32.89,38.59-62.79-9.13-111.57-15.06-15.39-30.25-30.32-44.97-44.8-56.23-55.28-105.77-103.99-116.61-147.35-10.36-41.44-26.01-55.6-46.55-54.62-21.24,1.01-48.2,17.6-79.92,37.23-32.72,20.26-70.51,43.46-110.59,60.85-40.25,17.46-82.75,29.01-124.65,25.79-59.31-4.56-80.73-14.71-93.7-20.85-5-2.37-8.68-4.11-12.69-4.58-9.08-1.05-25.33,2.86-44.11,9.6-20.79,7.46-44.56,18.36-65.19,29.85-13.37,7.45-26.06,14.85-34.01,23.78-7.58,8.51-10.84,18.6-6.07,31.87h0Zm4.28,91.07c1.62-23.31,3.69-53.12-9.29-89.27-5.56-15.49-1.76-27.27,7.1-37.22,8.49-9.53,21.61-17.2,35.41-24.88,20.85-11.62,44.91-22.65,65.99-30.21,19.52-7,36.61-11.04,46.52-9.89,4.89,.56,8.9,2.47,14.36,5.05,12.63,5.98,33.5,15.87,91.82,20.35,40.94,3.15,82.61-8.21,122.14-25.35,39.7-17.22,77.32-40.32,109.9-60.49,32.36-20.03,59.88-36.96,82.47-38.03,23.3-1.11,40.83,14.08,51.98,58.66,10.48,41.92,59.51,90.13,115.16,144.84,14.74,14.49,29.95,29.44,45.03,44.86,50.65,51.77,31.24,83.37,9.89,118.11-9.65,15.7-19.71,32.07-23.33,51.16-19.9,104.71-51.1,119.8-83.21,135.33-16.98,8.21-34.23,16.56-50.01,39.34-45.5,65.73-77.56,102.73-105.1,100.23-27.61-2.51-49.37-44.46-73.93-136.56-17.61-66.03-50-123.27-97.05-161.04-42.13-33.81-96.1-52.04-161.82-46.98-25.4,1.95-43.45,3.63-57.79,4.96-23.61,2.19-37.31,3.46-53.44,3.26-87.32-1.07-85.79-23.13-82.79-66.23Z"/>
    <path class="cls-2" d="M840.77,577.86c-4.1,12.54-4.91,26.5-2.36,39.5,2.42,12.33,7.85,23.78,16.37,32.29,10.52,10.51,45.61,3.91,74.44-1.51,13.75-2.59,26.09-4.91,33.91-5,102.75-1.21,165.81,35.11,208.02,89.87,42.12,54.65,63.37,127.56,82.64,199.81,6.47,24.27,14.56,31.76,24.07,29.22,12.45-3.32,27.77-22.91,45.09-45.04,15.1-19.29,31.69-40.5,49.48-54.85,1.18-.96,2.43-2.22,3.72-3.76,12.79-15.24,28.96-56.19,37.22-99.26,8.22-42.95,8.56-87.91-10.27-111.25-1.79-2.22-3.77-4.25-5.92-6.06-44.2-37.1-50.77-55.05-62.92-88.29-4.48-12.26-9.73-26.61-17.94-44.81-21.29-47.18-41.66-53.96-65.86-43.03-13.72,6.19-28.76,17.98-45.85,31.38-39.29,30.8-89.38,70.07-160.27,70.69-12.84,.11-30.11-2.31-47.94-5.8-24.37-4.77-49.83-11.53-66.49-16.57-17.47-5.28-35.99-9-52.01-5.44-15.86,3.53-29.36,14.28-37.09,37.93h0Zm-4.98,40.01c-2.63-13.43-1.79-27.87,2.45-40.84,8.08-24.72,22.31-35.98,39.06-39.71,16.58-3.69,35.54,.09,53.36,5.48,16.62,5.02,41.98,11.77,66.23,16.51,17.7,3.46,34.79,5.87,47.41,5.75,69.98-.61,119.67-39.57,158.65-70.13,17.24-13.51,32.4-25.4,46.4-31.72,25.73-11.62,47.24-4.71,69.39,44.37,8.26,18.28,13.52,32.69,18.02,45,11.99,32.8,18.47,50.52,62.13,87.16,2.29,1.92,4.38,4.07,6.29,6.44,19.41,24.05,19.17,69.82,10.82,113.43-8.33,43.49-24.76,84.95-37.79,100.47-1.4,1.66-2.77,3.05-4.1,4.12-17.56,14.17-34.05,35.25-49.05,54.42-17.62,22.51-33.21,42.43-46.52,45.98-11.11,2.96-20.35-4.97-27.32-31.12-19.19-71.98-40.36-144.62-82.17-198.86-41.72-54.13-104.12-90.03-205.87-88.83-7.57,.09-19.81,2.39-33.45,4.96-29.45,5.54-65.31,12.29-76.81,.79-8.91-8.91-14.6-20.84-17.11-33.67Z"/>
    <path class="cls-2" d="M1168.41,639.37c-7.05,27.73,10.67,40.25,31.7,55.11,16.99,12,36.04,25.46,47.04,49.24,3.25,7.01,6.43,14.53,9.56,21.91,9.65,22.75,18.79,44.3,30.55,52.33,11.84,8.08,27.29,1.88,50.72-32.43,13.56-19.86,4.75-39.06-5.29-60.94-5.34-11.64-11.01-24.01-14.09-37.79-7.26-32.54-28.16-58.57-52.35-73.92-12.61-8-26.08-13.07-38.95-14.64-12.71-1.55-24.82,.33-34.87,6.2-11.04,6.46-19.69,17.84-24.03,34.93h0Zm28.63,59.48c-22.67-16.02-41.77-29.51-33.82-60.8,4.72-18.58,14.27-31.04,26.52-38.21,11.11-6.5,24.37-8.6,38.19-6.91,13.67,1.66,27.92,7.02,41.19,15.43,25.27,16.03,47.09,43.24,54.69,77.28,2.95,13.21,8.5,25.32,13.74,36.72,10.71,23.35,20.1,43.83,4.85,66.17-25.69,37.62-43.62,43.75-58.14,33.84-13.04-8.91-22.48-31.17-32.45-54.67-3.04-7.18-6.14-14.47-9.5-21.75-10.39-22.48-28.82-35.49-45.25-47.1Z"/>
    <path class="cls-2" d="M1666.54,1093.51c-15.05,9.5-29.5,15.96-43.4,22.15-25.5,11.39-49.12,21.92-70.7,49.26-14.27,18.07-19.53,35.48-24.83,52.96-7.14,23.61-14.33,47.34-42.98,73.39l-8.22,7.49c-43.69,39.81-62.95,57.35-118.48,82.98-22.81,10.53-46.59,24.1-66.58,41.19-19.85,16.97-35.98,37.43-43.66,61.81h0s-1.47,4.63-1.47,4.63c-9.88,31.01-28.85,90.54,2.08,117.47,12.35,10.75,24.02,21.24,34.99,31.09,49.42,44.39,84.42,75.82,127.97,83.07,20.24,3.37,28.99-.12,38.1-3.74,15.36-6.11,31.66-12.61,97.29,8.33,50.94,16.26,75.8,25.21,96.41,32.63,22.14,7.97,39.37,14.18,79.07,25.86,37.76,11.11,67.16,11.67,95.41,5.02,28.39-6.68,55.8-20.67,89.37-38.57,34.14-18.21,56.52-28.28,85.32-28.21,28.61,.08,63.18,10.26,121.68,32.56,3.43,1.31,6.8,2.62,10.09,3.93v5.75c-3.9-1.56-7.89-3.12-12-4.68-57.91-22.07-91.98-32.15-119.78-32.23-27.61-.07-49.43,9.78-82.8,27.58-33.94,18.11-61.67,32.26-90.67,39.07-29.13,6.86-59.38,6.3-98.13-5.1-39.71-11.68-57.06-17.93-79.37-25.97-20.59-7.41-45.42-16.35-96.22-32.57-63.82-20.36-79.22-14.23-93.72-8.46-9.82,3.92-19.26,7.67-40.95,4.06-45.09-7.51-80.56-39.36-130.66-84.36-10.79-9.68-22.25-19.98-34.93-31.02-33.56-29.23-13.89-90.96-3.65-123.12l1.46-4.61h0c8.02-25.46,24.73-46.71,45.29-64.28,20.42-17.46,44.63-31.29,67.81-41.98,54.77-25.28,73.84-42.66,117.12-82.08l8.23-7.49c27.56-25.05,34.52-48.08,41.46-70.98,5.42-17.95,10.84-35.82,25.76-54.72,22.4-28.38,46.59-39.17,72.71-50.82,13.71-6.12,27.97-12.48,42.73-21.8,58.06-36.67,54.29-80.17,50.66-122-2.04-23.54-4.03-46.57,4.54-68.02h0l2.36-5.9c11.58-29.01,15.27-38.25,42.75-91.11,13.62-26.2,41.19-60.05,72.71-93.12,36.68-38.49,78.76-75.99,110.37-99.09,33.09-24.18,43.62-39.62,56.14-57.99,9.56-14.02,20.25-29.7,42.57-52.03,26.48-26.48,52.01-19.6,78.2-.56v6.75c-25.4-19.18-49.84-26.99-74.42-2.41-22.01,22.01-32.54,37.45-41.95,51.25-12.79,18.77-23.56,34.57-57.39,59.28-31.39,22.94-73.2,60.2-109.66,98.46-31.2,32.73-58.44,66.17-71.83,91.9-27.44,52.78-31.09,61.91-42.54,90.61l-2.36,5.91h0c-8.09,20.25-6.15,42.67-4.17,65.59,3.76,43.42,7.67,88.56-53.15,126.97Z"/>
    <path class="cls-2" d="M1408.77,1617.31c16.28,6.47,28.59,6.09,44.42,5.61,23.23-.7,53.96-1.64,115.52,18,23.74,7.58,47.19,15.75,70.61,23.9,32.03,11.15,64.04,22.3,96.58,31.86,51.04,15.02,78.84,.1,122.11-23.12,2.14-1.14,4.23-2.27,7.95-4.25,12.93-6.9,25.79-13.51,39.05-19.06,13.29-5.57,27.02-10.08,41.66-12.72,54.48-9.86,118.7,11.5,177.34,35.49v2.88c-58.57-24.01-122.78-45.54-176.87-35.75-14.4,2.61-27.95,7.06-41.11,12.57-13.2,5.53-25.97,12.1-38.82,18.95l-7.93,4.25c-43.85,23.54-72.03,38.65-124.13,23.33-32.56-9.57-64.62-20.74-96.71-31.91-23.45-8.17-46.92-16.34-70.54-23.88-61.12-19.51-91.6-18.58-114.64-17.88-16.14,.49-28.68,.88-45.48-5.8-34.6-13.75-65.53-27.38-85.07-46.64-19.72-19.44-27.82-44.47-16.38-80.81,4.45-14.15,16.18-26.36,29.91-36.45,13.61-10.01,29.21-17.97,41.55-23.67,30.43-14.04,56.47-28.94,80.96-45.84,24.5-16.91,47.49-35.84,71.81-57.95,39.53-35.93,51.86-67.42,61.28-91.44,4.74-12.1,8.75-22.34,15.14-30.43,11.49-14.56,31.28-22.41,52.97-31.01,15.17-6.02,31.28-12.42,46-21.71,65.52-41.37,72.39-107.79,79.51-176.76,4.68-45.34,9.49-91.76,30.99-133.12,11.71-22.52,35.32-52.55,61.64-81.4,29.62-32.47,62.71-63.47,86.12-80.58,36.89-26.95,56.11-49.39,69.1-64.56,10.51-12.27,17.05-19.9,25.73-21.56,12.36-2.36,28.14,7.82,64.96,34.58v3.3c-37.27-27.13-52.96-37.45-64.46-35.26-7.75,1.48-14.05,8.83-24.19,20.67-13.08,15.27-32.43,37.85-69.55,64.98-23.28,17.01-56.21,47.88-85.73,80.22-26.17,28.69-49.63,58.52-61.24,80.83-21.28,40.93-26.06,87.09-30.71,132.16-7.2,69.62-14.13,136.69-80.75,178.75-14.91,9.42-31.15,15.87-46.43,21.92-21.34,8.47-40.82,16.2-51.86,30.19-6.13,7.75-10.07,17.84-14.75,29.76-9.5,24.26-21.97,56.09-61.96,92.45-24.38,22.16-47.46,41.17-72.09,58.16-24.63,17-50.8,31.98-81.37,46.08-12.22,5.64-27.65,13.51-41.08,23.4-13.32,9.8-24.68,21.57-28.94,35.09-11.08,35.21-3.3,59.39,15.7,78.12,19.19,18.92,49.85,32.42,84.18,46.06Z"/>
    <path class="cls-2" d="M1686.31,1253.32c-25.1,22.84-42.66,50.88-60.9,80.04-31.99,51.12-66.12,105.64-146.69,142.82-8.03,3.71-12.95,8.24-15.25,13.21-2.32,5-2.02,10.57,.38,16.27,2.53,6,7.37,12.14,13.94,17.92,16.3,14.36,42.98,26.27,71.72,28.67,109.08,9.09,143.5,28.62,174.03,45.95,14.03,7.96,27.23,15.44,46.64,21.16,33.14,9.74,66.14-8.83,114-35.76,11.44-6.44,23.74-13.37,37.48-20.7,55.16-29.42,113.51-5.76,169.37,16.89,11.13,4.51,22.15,8.98,32.98,12.96v5.68c-11.56-4.19-23.21-8.92-34.98-13.69-54.74-22.19-111.91-45.37-164.85-17.14-13.21,7.04-25.72,14.1-37.38,20.65-49,27.58-82.8,46.61-118.11,36.22-20-5.87-33.46-13.51-47.77-21.64-30.03-17.05-63.9-36.26-171.83-45.25-29.91-2.49-57.75-14.95-74.81-29.98-7.15-6.3-12.47-13.1-15.32-19.88-2.99-7.08-3.31-14.12-.32-20.58,2.83-6.1,8.61-11.55,17.87-15.82,79.13-36.52,112.81-90.33,144.39-140.79,18.45-29.48,36.19-57.83,61.83-81.16,34.18-31.1,67.99-36.88,96.93-41.82,53.77-9.17,90.04-15.37,76.29-189.62-1.98-25.03-3.21-41.89-1.41-58.67,1.8-16.81,6.62-33.32,16.74-57.52,24.45-58.48,55.75-80.48,111.67-119.78,7.49-5.26,15.42-10.83,23.41-16.54,9.64-6.89,17.93-14.07,25.48-20.6,25.98-22.51,43.62-37.79,78.59-12.24,4.78,3.5,9.31,7.17,13.61,10.98v7.21c-5.21-4.85-10.79-9.51-16.76-13.88-31.52-23.03-47.87-8.88-71.94,11.97-7.63,6.62-16.02,13.88-25.87,20.92-8.54,6.09-16.2,11.48-23.43,16.56-55.12,38.73-85.96,60.41-109.81,117.46-9.91,23.72-14.63,39.8-16.37,56.04-1.74,16.27-.52,32.93,1.43,57.69,14.15,179.11-24.07,185.64-80.71,195.31-28.22,4.81-61.21,10.44-94.22,40.49Z"/>
    <path class="cls-2" d="M1642.77,1443.99c-35.81,28.43-43.15,43.59-36.6,51.85,7.22,9.09,31.13,10.58,52.87,11.93,13.58,.85,26.33,1.64,34.01,4.25,27.82,9.44,48.31,20.98,63.9,29.77,2.2,1.24,4.42,2.48,5.66,3.18,35.04,19.49,67.17-1.4,99.19-22.21,9.63-6.27,19.26-12.53,28.99-17.71,2.5-1.34,4.84-2.68,7.13-3.98,14.21-8.11,26.14-14.92,69.5-17.17,20.28-1.06,45.08,1.87,69.72,6.46,33.01,6.16,65.73,15.32,86.85,21.91v2.79c-21.01-6.59-54.03-15.87-87.33-22.08-24.45-4.56-49.04-7.47-69.1-6.42-42.73,2.21-54.42,8.88-68.33,16.82-2.28,1.29-4.61,2.63-7.2,4.01-9.62,5.13-19.2,11.36-28.79,17.59-32.69,21.25-65.49,42.57-101.94,22.31-2.38-1.33-3.94-2.21-5.67-3.18-15.5-8.74-35.87-20.21-63.45-29.57-7.35-2.49-19.93-3.27-33.32-4.1-22.31-1.39-46.85-2.91-54.81-12.94-7.53-9.49-.35-25.92,37.03-55.6,61.2-48.59,70.61-75.27,78.41-97.42,5.01-14.22,9.37-26.61,25.85-41.59,22.3-20.29,29.38-21.15,49.81-23.6,18.29-2.19,47.5-5.71,108.9-26.2,81.03-27.04,71.56-95.57,51.14-156.77-4.68-14.01-9.91-27.62-14.79-40.27-7.45-19.35-14.04-36.48-16.47-49.42-6.51-34.68-4.5-58.73,6.13-79.4,10.61-20.6,29.75-37.7,57.55-58.54,13.73-10.29,27.91-19.46,40.12-27.36,7.84-5.08,14.88-9.63,20.47-13.62,10.18-7.26,19.45-11.14,27.84-12.37,9.3-1.36,17.53,.49,24.75,4.54,7.15,4.01,13.3,10.18,18.52,17.48,1.64,2.3,3.19,4.71,4.65,7.2v5.49c-2.07-3.9-4.33-7.66-6.82-11.14-5-7-10.86-12.89-17.65-16.7-6.72-3.77-14.39-5.49-23.05-4.23-8,1.17-16.88,4.89-26.69,11.9-5.6,4-12.68,8.58-20.56,13.69-12.19,7.89-26.33,17.03-39.97,27.26-27.5,20.6-46.4,37.46-56.78,57.63-10.35,20.1-12.28,43.64-5.88,77.68,2.39,12.73,8.94,29.74,16.34,48.97,4.89,12.69,10.15,26.37,14.82,40.38,20.83,62.42,30.4,132.36-52.82,160.14-61.7,20.59-91.04,24.12-109.43,26.32-19.81,2.38-26.66,3.2-48.33,22.92-15.98,14.54-20.25,26.63-25.13,40.51-7.92,22.48-17.46,49.56-79.27,98.63Z"/>
    <path class="cls-2" d="M1734.46,1445.81c2.5,12.53,14.22,20.04,28.56,24.79,14.94,4.95,32.7,6.91,46.3,8.4,23.25,2.54,45.91-17.38,69.76-38.34,24.66-21.69,50.54-44.44,80.74-46.01,32.04-1.66,50.27,7.27,67.46,15.69,10.04,4.92,19.72,9.66,31.56,11.81,38.48,7,51.09,3.43,52.76-5.8,1.17-6.45-2.38-16.1-6.38-26.93-3.13-8.49-6.52-17.68-8.26-27.08-10.35-55.76,2.82-98.12,15.07-137.5,4.55-14.63,8.97-28.85,11.97-43.18v22.03c-2.13,7.52-4.48,15.07-6.87,22.74-12.06,38.77-25.03,80.48-14.92,134.94,1.65,8.87,4.97,17.88,8.03,26.19,4.25,11.54,8.04,21.82,6.61,29.71-2.27,12.48-16.44,17.83-58.95,10.1-12.58-2.28-22.58-7.18-32.97-12.27-16.58-8.12-34.17-16.73-64.84-15.15-28.32,1.47-53.5,23.6-77.48,44.69-24.75,21.76-48.28,42.44-73.86,39.64-13.87-1.51-31.98-3.52-47.41-8.63-16.03-5.31-29.17-13.97-32.14-28.83-12.98-65.07,124.84-102.21,183.42-118,6.4-1.72,11.87-3.2,15.64-4.29,123.62-35.8,131.81-100.91,113.95-162.6-6.7-23.15-17.08-45.96-26.46-66.6-10.92-24.02-20.52-45.13-21.71-61.02-1.43-19.25,12.35-46.04,30.82-61.81,6.8-5.8,14.27-10.17,21.89-12.18,7.82-2.07,15.79-1.69,23.36,2.07,13.38,6.66,25.36,23.99,32.7,57.33,1.44,6.55,2.72,12.91,3.96,19.09,3.85,19.18,7.37,36.74,14.77,54.03,.87,2.04,1.68,4.07,2.44,6.07v17.81c-1.75-7.07-4.16-14.32-7.36-21.78-7.64-17.85-11.21-35.64-15.11-55.08-1.23-6.14-2.5-12.45-3.94-18.98-6.95-31.54-17.83-47.71-29.86-53.69-6.32-3.14-13.01-3.45-19.61-1.7-6.81,1.8-13.57,5.77-19.78,11.08-17.33,14.8-30.28,39.66-28.96,57.35,1.12,14.95,10.53,35.66,21.25,59.22,9.44,20.76,19.88,43.72,26.71,67.31,18.63,64.34,10.29,132.18-117.59,169.2-4.5,1.31-9.68,2.7-15.75,4.33-57.14,15.4-191.55,51.63-179.55,111.8Z"/>
    <path class="cls-2" d="M521.07,401.38l-8.14,6.84c-57.8,48.48-69.23,58.08-58.41,120.81,3.24,18.83,15.84,38.52,28.94,59,12.62,19.73,25.7,40.19,31.56,61.56,5.37,19.59,4.62,39.76,3.9,58.92-.87,23.35-1.69,45.2,8.85,62.23,8.12,13.13,13.19,23.33,17.55,32.14,11.57,23.33,18.19,36.67,64.54,68.13,24.83,16.85,35.29,27.9,42.98,36.03,11.98,12.65,17.12,18.09,61.69,27.83l10.38,2.28c29.9,6.56,45.25,9.93,59.98,11.18,15.56,1.32,30.55,.29,61.35-1.84l2.89-.2c18.12-1.24,33.21-4.57,46.28-7.45,35.16-7.75,56.04-12.35,83.08,33.27,18.39,31.04,30.42,72.37,38.43,112.52,7.99,40.11,11.98,79.05,14.27,105.39l.36,4.23c4.21,48.73,5.4,62.51,45.02,95.52,16.32,13.61,31.6,18.12,44.77,22.01,20.24,5.98,35.61,10.53,42.63,42.79,8.79,40.43,5.12,63.88,.84,91.16-1.3,8.33-2.66,17.03-3.75,26.78-1.95,17.54-10.6,31.82-19.14,45.94h0c-11.6,19.16-23.01,38.01-16.49,64.05,8.23,32.9,25.83,66.09,49.28,94.82,23.18,28.41,52.07,52.45,83.25,67.57,18.15,8.79,32.02,17.72,44.98,26.06,40.91,26.32,72.86,46.88,203,38.97,17.93-1.09,47.59,11.74,84.48,27.67,78.23,33.81,189.22,81.79,286.91,39.78,61.6-26.49,104.91-36.19,144.63-33.82,33.69,2.01,64.7,12.69,102.03,29.19v2.92c-37.55-16.65-68.58-27.43-102.19-29.44-39.28-2.34-82.23,7.31-143.42,33.62-98.73,42.45-210.35-5.79-289.02-39.8-36.56-15.79-65.95-28.5-83.26-27.45-131.01,7.96-163.28-12.8-204.6-39.38-12.91-8.31-26.71-17.18-44.7-25.9-31.53-15.29-60.74-39.59-84.16-68.29-23.69-29.03-41.48-62.58-49.8-95.86-6.78-27.12,4.91-46.43,16.8-66.07h0c8.39-13.87,16.88-27.9,18.77-44.86,1.07-9.67,2.45-18.47,3.77-26.89,4.23-27,7.86-50.21-.83-90.19-6.68-30.73-21.4-35.08-40.77-40.8-13.4-3.95-28.97-8.55-45.72-22.51-40.49-33.74-41.7-47.76-45.98-97.35l-.36-4.23c-2.28-26.27-6.26-65.13-14.22-105.09-7.96-39.92-19.9-80.96-38.11-111.69-26.05-43.95-46.23-39.51-80.2-32.02-13.14,2.89-28.32,6.24-46.68,7.5l-2.89,.2c-30.95,2.14-46.02,3.18-61.75,1.84-14.91-1.26-30.32-4.65-60.33-11.23l-10.39-2.28c-45.36-9.92-50.68-15.54-63.05-28.62-7.61-8.04-17.95-18.96-42.54-35.65-46.94-31.86-53.67-45.43-65.44-69.15-4.34-8.77-9.38-18.93-17.42-31.92-10.97-17.72-10.14-39.96-9.25-63.73,.71-18.97,1.45-38.93-3.81-58.12-5.75-20.97-18.72-41.26-31.24-60.83-13.25-20.72-25.99-40.64-29.33-59.99-11.07-64.25,.55-74,59.33-123.31l8.14-6.84h0c35.31-29.7,53.13-38.47,80-51.69,19.71-9.7,44.32-21.81,84.44-46.47,38.23-23.5,53.55-27.14,96.14-37.23l7.21-1.71c31.17-7.42,79.31,.41,123.14,7.53,24.14,3.93,46.98,7.64,64.84,8.45,37.41,1.7,72.6-9.21,105.06-25.68,32.55-16.51,62.38-38.63,88.98-59.25,60.96-47.26,125.83-47.26,160.3-47.26,24.59,0,44.48,14.6,69.41,32.9,10.39,7.62,21.66,15.9,34.47,23.99,21.84,13.79,42.53,29.88,62.94,53.74,20.38,23.83,40.47,55.39,61.11,100.12,27.82,60.28,38.84,65.61,50.86,71.42,5.86,2.83,11.95,5.77,20.17,14.74,9.43,10.29,18.96,17.35,28.75,24.61,16.23,12.04,33.18,24.6,51.79,53.24,46.29,71.21,76.57,74.73,103.21,57.4,11.12-7.23,21.71-18.08,32.56-29.2,13.91-14.26,28.24-28.95,44.88-37.27,30.57-15.28,41.12-28.43,52.52-42.64,9.03-11.26,18.6-23.18,38.83-37.34,19.76-13.83,79.66-24.25,143.03-30.03v2.68c-62.89,5.74-122.17,16-141.5,29.53-19.9,13.93-29.35,25.71-38.27,36.83-11.59,14.44-22.32,27.8-53.41,43.35-16.23,8.11-30.41,22.64-44.16,36.74-10.95,11.22-21.64,22.18-33.01,29.58-27.94,18.16-59.44,14.84-106.91-58.19-18.35-28.23-35.1-40.65-51.15-52.55-9.88-7.32-19.5-14.46-29.12-24.96-7.86-8.58-13.73-11.41-19.37-14.14-12.46-6.02-23.9-11.55-52.12-72.7-20.54-44.49-40.49-75.85-60.71-99.5-20.2-23.61-40.7-39.56-62.33-53.22-12.92-8.16-24.22-16.46-34.63-24.1-24.53-18.01-44.11-32.38-67.83-32.38-34.16,0-98.45,0-158.67,46.7-26.71,20.71-56.67,42.91-89.41,59.52-32.83,16.65-68.44,27.68-106.38,25.96-18.01-.82-40.92-4.54-65.15-8.49-43.57-7.08-91.42-14.87-122.09-7.56l-7.21,1.71c-42.28,10.03-57.49,13.63-95.35,36.91-40.17,24.69-64.87,36.85-84.66,46.58-26.71,13.14-44.42,21.86-79.47,51.34h0Z"/>
    <path class="cls-2" d="M1510.83,101.9l.86,4.3h0c2.85,14.36,4.2,21.11,7.93,29.52h0c3.38,7.61,8.78,16.8,18.96,34.13,3.3,5.61,7.01,11.92,10.32,17.6,6.49,11.12,12.33,21.27,17.32,29.94,18.32,31.83,24.53,42.62,47.28,72.95,12.78,17.04,22.63,29.29,31.25,40,10.62,13.21,19.37,24.08,29.79,39.26,11.43,16.63,40.03,54.02,69.43,77.28,17.78,14.07,35.71,22.9,49.82,18.41,3.02-.96,9.48-8.29,18.84-18.93,17.8-20.23,45.78-52.03,84.71-77.13,28.4-18.31,52.68-23.53,82.43-29.92,16.29-3.5,34.24-7.35,55.4-13.94,31.89-9.92,62.84-28.5,88.82-52.48v7.2c-25.79,22.93-56.06,40.69-87.23,50.39-21.4,6.66-39.48,10.54-55.88,14.07-29.22,6.28-53.06,11.4-80.66,29.19-38.28,24.68-65.96,56.14-83.58,76.16-9.93,11.28-16.78,19.06-21.25,20.48-16.12,5.12-35.68-4.23-54.74-19.31-29.9-23.66-58.92-61.59-70.51-78.45-10.2-14.84-18.95-25.72-29.56-38.92-8.58-10.66-18.38-22.85-31.36-40.15-22.94-30.58-29.19-41.44-47.63-73.49-4.56-7.94-9.94-17.27-17.31-29.92-4.48-7.68-7.6-12.99-10.29-17.58-10.29-17.51-15.74-26.79-19.24-34.66h0c-4.01-9.04-5.39-15.95-8.31-30.64h0l-.86-4.3-1.48-7.43c-7.04-35.28-13.63-68.35-23.12-95.51h5.65c9.31,27.19,15.81,59.77,22.72,94.47l1.48,7.43h0ZM527.53,0c14.37,8.7,24.38,13.42,32.12,17.06,17.69,8.34,23.92,11.28,41.64,40.81,12.41,20.69,9.48,34.1,7.02,45.35-3.11,14.22-5.37,24.58,35.06,44.79,16.39,8.2,30.1,15.97,42.42,22.96,41.6,23.6,67.22,38.13,123.81,27.18,30.28-5.86,60.22-.33,91.03,5.36,54.91,10.14,112.67,20.81,178.86-33.58,7.62-6.26,16.3-14.13,25.74-22.69,26.99-24.46,60.11-54.49,92.43-68.85,11.49-5.1,22.26-8.81,32.32-12.26,27.91-9.58,50.3-17.27,62.25-46.29,3.07-7.46,4.83-14.03,5.8-19.84h5.42c-1,6.35-2.87,13.57-6.29,21.87-12.87,31.27-36.28,39.31-65.45,49.33-10.08,3.46-20.86,7.16-31.9,12.07-31.51,14.01-64.29,43.72-91,67.93-9.51,8.62-18.26,16.55-25.93,22.85-68.11,55.96-127.11,45.07-183.2,34.71-30.3-5.6-59.74-11.03-89.07-5.36-58.5,11.32-84.77-3.58-127.44-27.78-12.31-6.98-26.01-14.76-42.18-22.84-44.16-22.08-41.52-34.14-37.9-50.69,2.26-10.32,4.94-22.62-6.38-41.49-16.87-28.12-22.73-30.89-39.34-38.71-9.11-4.29-21.33-10.05-39.97-21.89h10.13Z"/>
    <path class="cls-2" d="M1776.44,375.27c22.67-.22,40.11-19.25,57.45-38.18,10.34-11.28,20.65-22.53,32.1-29.91,34.49-22.24,62.56-26.9,93.34-32.02,17.37-2.89,35.62-5.93,56.37-12.38,23.26-7.23,40.88-21.4,54.46-39.65,13.63-18.33,23.21-40.8,30.34-64.54,8.39-27.97,10.41-49.61,12.87-75.87,.44-4.74,.9-9.62,1.38-14.47,1.31-13.16,4.43-24.39,7.48-35.38,.6-2.16,1.19-4.32,1.77-6.47v10.06c-2.75,9.98-5.42,20.27-6.6,32.05-.51,5.15-.96,9.88-1.38,14.45-2.47,26.42-4.51,48.2-12.97,76.39-7.2,24.01-16.91,46.76-30.75,65.37-13.9,18.69-31.96,33.19-55.8,40.61-20.91,6.5-39.26,9.56-56.74,12.46-30.49,5.07-58.3,9.7-92.33,31.64-11.19,7.21-21.37,18.32-31.58,29.47-17.73,19.35-35.56,38.82-59.39,39.04-12.12,.11-28.86-22.92-48.04-49.3l-2.88-3.95h0c-9.36-12.86-16.86-23.2-23.91-32.92-14.64-20.19-27.62-38.08-33.65-46.11-6.32-8.43-12.57-16.46-18.63-24.24-16.37-21.03-31.29-40.21-46.14-65.66h0c-1.65-2.82-3.92-6.49-6.49-10.64-7.41-11.95-17.27-27.86-20.02-35.9-1.39-4.05-2.39-9.64-3.28-14.61h0c-.32-1.81-.63-3.54-.93-5.03-1.77-8.85-3.6-18.84-5.51-29.34-3.46-18.94-7.21-39.52-11.97-60.22h2.74c4.7,20.55,8.42,40.96,11.86,59.75,1.86,10.19,3.63,19.91,5.51,29.29,.31,1.57,.62,3.28,.94,5.08h0c.87,4.86,1.85,10.33,3.18,14.23,2.66,7.76,12.42,23.51,19.76,35.36,2.67,4.31,5.03,8.11,6.54,10.7h0c14.73,25.26,29.62,44.39,45.94,65.36,5.94,7.63,12.07,15.51,18.65,24.28,6.3,8.39,19.16,26.13,33.68,46.15,8.45,11.65,17.4,23.99,23.9,32.92h0l2.88,3.95c18.75,25.79,35.12,48.31,45.85,48.2h0ZM657.44,0c2.81,5.03,5.64,10.76,8.5,17.33,6.55,15.04-.5,30.37-7.45,45.51-8.25,17.96-16.38,35.65-.1,51.45,7.76,7.53,24.3,15.59,40.89,22.42,16.66,6.86,33.39,12.47,41.41,15.08,6.48,2.11,13.07,2.78,19.69,2.6,6.66-.18,13.38-1.23,20.07-2.52,40.41-7.82,81.84-.07,121.24,7.29,19.77,3.69,39.03,7.29,57.36,8.77,16.57,1.33,30.52,.03,43.53-4.23,13.02-4.28,25.14-11.55,38.07-22.17,16.99-13.96,32.19-31.88,47.53-49.97,24.49-28.88,49.37-58.21,82.84-73.09,12.15-5.4,24.28-9.63,36.57-13.93,3.19-1.11,6.41-2.24,10.02-3.52,1.14-.4,2.09-.73,2.95-1.03h7.68c-1.69,.77-3.77,1.48-6.32,2.36-1.12,.38-2.31,.8-3.42,1.19-3.1,1.1-6.56,2.31-10.03,3.52-12.27,4.28-24.36,8.51-36.37,13.84-32.9,14.62-57.58,43.73-81.89,72.38-15.41,18.17-30.68,36.17-47.87,50.3-13.19,10.84-25.59,18.26-38.94,22.65-13.36,4.38-27.64,5.72-44.56,4.36-18.43-1.48-37.79-5.1-57.64-8.81-39.15-7.32-80.32-15.02-120.25-7.29-6.8,1.31-13.65,2.37-20.51,2.56-6.9,.19-13.79-.51-20.58-2.73-8.04-2.62-24.82-8.25-41.59-15.15-16.85-6.93-33.69-15.16-41.74-22.97-17.63-17.11-9.11-35.65-.47-54.47,6.71-14.61,13.5-29.39,7.43-43.34-3.08-7.07-6.11-13.14-9.13-18.4h3.07Z"/>
    <path class="cls-2" d="M1649.11,80.29c8.04,12.47,17.29,31.49,27.07,51.61,14.4,29.62,29.97,61.65,44.23,78.01,55.84,64.04,78.37,51.53,127.47,24.25,30.33-16.85,70.5-39.17,133.87-53.29,41.31-9.21,47.34-30.41,54.05-54.03h0c.67-2.38,1.35-4.76,2.12-7.34,4.93-16.45,11.14-33.66,17.5-51.3,8-22.19,16.24-45.06,22.54-68.19h5.54c-6.41,23.77-14.86,47.23-23.06,69.99-6.29,17.45-12.43,34.48-17.4,51.03-.7,2.32-1.41,4.81-2.1,7.27h0c-7.17,25.23-13.61,47.89-58.05,57.79-62.58,13.94-102.37,36.05-132.42,52.74-51.69,28.72-75.41,41.89-134.08-25.4-14.75-16.91-30.48-49.28-45.02-79.2-9.7-19.95-18.87-38.82-26.76-51.05-12.87-19.97-16.57-47.05-20.1-72.89-.47-3.46-.94-6.89-1.43-10.28h5.39c.45,3.16,.89,6.36,1.32,9.57,3.46,25.26,7.08,51.73,19.31,70.71h0ZM716.03,0h5.98c5.7,11.61,8.18,20.86,10.34,28.95,2.06,7.69,3.83,14.28,7.9,20.69,14.37,22.59,43.03,18.41,67.97,14.77,8.37-1.22,16.33-2.38,23.45-2.5,19.42-.34,39.89,3.39,60.17,7.1,38.36,7.01,76.04,13.89,102.7-8.02,12.69-10.42,28.96-15.5,47.5-21.28,24.08-7.51,52.1-16.25,80.47-39.71h8.28c-30.69,27.19-61.18,36.7-87.17,44.81-18.02,5.62-33.84,10.56-45.7,20.3-28.57,23.48-67.46,16.38-107.05,9.15-20.03-3.66-40.25-7.35-59.13-7.02-6.67,.12-14.53,1.26-22.78,2.47-26.53,3.86-57.02,8.31-73.25-17.2-4.51-7.09-6.38-14.05-8.55-22.18-2.24-8.38-4.83-18.05-11.15-30.33Z"/>
    <path class="cls-2" d="M1695.01,4.94c3.39,20.96,8.92,40.88,20.39,63.51,11.48,22.67,28.93,48.07,56.13,79.95,32.15,37.67,46.82,28.93,74.34,12.53,14.22-8.48,31.8-18.96,56.72-26.36,24.24-7.2,45.62-17.2,61.66-33.13,16.02-15.9,26.79-37.77,29.89-68.77,1.21-12.12,3.96-22.73,7.26-32.66h2.82c-3.38,10.04-6.21,20.73-7.43,32.92-3.16,31.68-14.21,54.08-30.66,70.4-16.41,16.29-38.16,26.48-62.79,33.8-24.61,7.31-42.01,17.69-56.11,26.09-28.78,17.15-44.12,26.3-77.73-13.08-27.35-32.06-44.91-57.62-56.49-80.48-11.6-22.9-17.21-43.07-20.64-64.29-.29-1.8-.59-3.59-.91-5.36h2.71c.29,1.63,.57,3.27,.84,4.94h0ZM854.39,0h8.33c28.6,9.23,48.28,10.39,63.13,11.26,6.55,.38,12.19,.71,17.28,1.65,14.8,2.73,27.78-2.95,40.41-12.91h4.26c-13.97,11.68-28.32,18.64-45.15,15.53-4.91-.91-10.48-1.23-16.95-1.61-16.28-.95-38.3-2.24-71.32-13.92Z"/>
    <path class="cls-2" d="M1770.67,36.91c2.37,6.76,4.27,13.76,6.14,20.62,7.14,26.2,13.71,50.25,44.95,49.92,54.58-.56,84.59-8.5,101.88-27.9,14.96-16.77,20.76-42.45,24.95-79.56h5.37c-4.32,38.5-10.36,65.21-26.32,83.11-18.41,20.65-49.57,29.1-105.83,29.68-35.35,.36-42.43-25.58-50.14-53.86-1.83-6.73-3.71-13.6-6.04-20.26-3.04-8.7-8.02-18.79-13.29-29.5-1.48-3.01-2.99-6.08-4.49-9.17h5.94c1.12,2.29,2.24,4.56,3.34,6.81,5.35,10.85,10.38,21.08,13.55,30.11Z"/>
    <path class="cls-2" d="M1879.25,30.27c8.68-3.82,11.03-16.86,11.99-30.27h2.67c-1,14.26-3.57,28.31-13.59,32.72-12.71,5.59-29.01,2.71-42.65-4.86-7.07-3.92-13.44-9.1-18.23-15.01-3.24-4-5.76-8.33-7.3-12.85h2.83c1.46,3.9,3.71,7.67,6.54,11.17,4.58,5.65,10.67,10.61,17.46,14.37,12.97,7.19,28.38,9.97,40.28,4.74Z"/>
    <path class="cls-2" d="M1331.23,58.82c.97,2.91,2.07,5.75,3.29,8.51,9.94,22.67,27.23,39.75,45.13,50.11,17.79,10.3,36.12,13.96,48.31,9.87,.71-.24,1.41-.51,2.08-.8,1.82-.8,2.84-1.24,3.88-1.68,21.97-9.45,29.37-12.63,17.97-74.93-4.51-24.63-25.39-36.68-48.65-39.33-10.24-1.17-20.95-.52-30.93,1.68h0c-9.97,2.19-19.19,5.92-26.51,10.91-12.59,8.59-19.51,20.96-14.57,35.67h0Zm.84,9.57c-1.24-2.82-2.36-5.73-3.37-8.73-5.39-16.06,2.03-29.47,15.59-38.72,7.61-5.19,17.16-9.05,27.44-11.32h0c10.26-2.25,21.26-2.92,31.8-1.72,24.33,2.77,46.2,15.48,50.96,41.5,11.79,64.4,3.9,67.8-19.53,77.87-1.45,.62-3.01,1.3-3.87,1.67-.74,.32-1.51,.62-2.3,.89-12.9,4.32-32.05,.59-50.49-10.09-18.34-10.61-36.05-28.11-46.24-51.35Z"/>
    <path class="cls-2" d="M0,782.93c35.59,5.19,54,10.73,91.33,41.47,23.12,19.04,35.87,32.57,48.07,45.53,14.92,15.84,29.03,30.82,60.53,54.03,11.2,8.24,19.93,14.28,27.13,19.25,30.32,20.94,34.04,23.51,73.22,87.19,12.87,20.92,20.85,37.39,27.2,50.5,16.98,35.07,21.93,45.28,82.62,53.95,18.59,2.65,36.4,4.07,53.37,5.41,70.26,5.58,126.25,10.02,169.09,95.69,14,28.01,51.18,35.92,88.15,43.78,41.02,8.72,81.79,17.4,93.2,53.24,12.32,38.72-8.75,68.04-32.2,100.68-17.67,24.6-36.74,51.14-43.22,84.84-6.08,31.66,6.75,51.55,19.09,70.67,16.46,25.51,32.1,49.75,5.1,97.11-10.36,18.19-15.57,36.41-21.41,56.85-8,28.03-17.19,60.15-42.38,102.37-76.92,128.91-150.7,104.18-221.03,80.62-32.5-10.89-64.25-21.53-94.84-15.95-101.77,18.57-142.7,62.99-177.53,100.81-38.91,42.24-70.4,76.41-167.65,59.25-13.71-2.42-26.27-4.31-37.84-5.81v-5.39c11.84,1.52,24.7,3.46,38.76,5.94,94.39,16.66,124.98-16.56,162.8-57.6,35.39-38.41,76.97-83.54,180.52-102.44,31.94-5.83,64.33,5.02,97.48,16.13,68.34,22.9,140.04,46.92,214.76-78.29,24.81-41.57,33.89-73.36,41.81-101.09,5.93-20.73,11.21-39.24,21.91-58.01,25.4-44.56,10.61-67.48-4.96-91.6-12.91-20-26.34-40.8-19.85-74.56,6.7-34.83,26.13-61.88,44.14-86.94,22.62-31.5,42.95-59.79,31.44-95.96-10.46-32.87-49.72-41.23-89.23-49.62-38.21-8.13-76.65-16.31-91.8-46.62-41.48-82.97-96.15-87.3-164.74-92.74-17.02-1.36-34.9-2.77-53.7-5.46-63.51-9.07-68.74-19.87-86.68-56.92-6.28-12.96-14.16-29.24-26.95-50.02-38.61-62.74-42.23-65.24-71.7-85.6-7.27-5.02-16.09-11.12-27.26-19.34-31.89-23.5-46.16-38.65-61.26-54.68-12.1-12.85-24.75-26.28-47.57-45.07-35.92-29.58-53.88-35.18-87.94-40.2v-5.4Z"/>
    <path class="cls-2" d="M0,694.9c26.97,5.78,47.09,15.52,80.64,43.15,24.26,19.98,45.92,36.7,65.77,52.03,67.97,52.48,114.94,88.75,173.36,183.67,4.68,7.61,9.44,15.48,13.82,22.71,41.69,68.85,47.85,79.04,135.31,91.53,32.11,4.58,61.23,2.91,87.84,1.38,64-3.69,113.66-6.54,156.41,78.97,16.23,32.47,51.87,48.92,87.35,65.31,39.69,18.32,79.21,36.57,92.1,77.1,19.62,61.66,9.7,107.01-3.97,169.48-3.3,15.09-6.83,31.2-10.18,48.61-6.38,33.22-4.53,79.14-2.51,129.27,3.61,89.38,7.76,192.05-33.22,260.72-98.02,164.25-213.53,163.67-312.5,163.17-30.68-.16-59.76-.3-86.14,4.52-63.84,11.64-108.85,24.89-144.17,37.48h-7.86c36.44-13.36,83.24-27.65,151.57-40.11,26.62-4.86,55.82-4.71,86.62-4.55,98.26,.5,212.96,1.07,310.2-161.87,40.57-67.99,36.44-170.24,32.85-259.26-2.03-50.29-3.89-96.36,2.55-129.86,3.39-17.63,6.9-33.65,10.18-48.67,13.59-62.08,23.45-107.14,4.05-168.1-12.54-39.41-51.52-57.41-90.68-75.48-35.9-16.58-71.96-33.23-88.62-66.55-41.97-83.93-90.86-81.12-153.88-77.49-26.74,1.53-55.99,3.22-88.36-1.4-88.71-12.68-94.96-22.99-137.22-92.8-4.04-6.67-8.42-13.9-13.83-22.69-58.17-94.53-104.98-130.67-172.71-182.96-19.87-15.34-41.55-32.08-65.84-52.08-32.82-27.03-52.65-36.73-78.95-42.46v-2.74Z"/>
    <path class="cls-2" d="M0,1981.14c17.62,1.29,35.19,3.01,52.48,6.07,21.91,3.87,38.49,2.23,52.33-3.36,13.84-5.6,25.03-15.18,36.11-27.2,29.57-32.04,61.21-64.02,96.73-90.07,35.58-26.08,75.05-46.2,120.2-54.43,63.62-11.61,101.28,2.87,129.47,13.7,38.11,14.65,58.51,22.48,104-53.75,5.91-9.9,11.98-19.41,17.86-28.61,30.99-48.47,56.74-88.75,28.21-142.25-10.39-19.48-9.74-53.15-3.58-87.71,7.74-43.39,24.19-88.35,38.39-108.33,12.74-17.94,11.84-27.07,3.33-33.11-6.28-4.46-16.63-7.48-28.74-11.01-28.64-8.34-66.96-19.52-87.1-59.79-2.34-4.67-4.46-9.01-6.46-13.1-19.43-39.73-28.26-57.77-75.78-62.2l-2.69-.25c-54.11-5.03-154.32-14.36-190.32-50.8-21.54-21.8-27.2-36.67-34.11-54.78-4.77-12.5-10.13-26.57-21.84-45.61-28.02-45.53-38.08-52.94-76.61-81.33l-1.94-1.43c-10.82-7.97-21.77-16.37-32.85-24.86-36.99-28.37-75.47-57.86-117.09-77.62v-2.99c42.26,19.88,81.24,49.76,118.71,78.48,11.04,8.46,21.94,16.82,32.81,24.83l1.94,1.43c38.88,28.64,49.03,36.12,77.32,82.08,11.84,19.24,17.25,33.44,22.06,46.06,6.79,17.82,12.37,32.46,33.51,53.86,35.31,35.75,134.89,45.02,188.65,50.02l2.69,.25c49.03,4.57,58.06,23.03,77.94,63.68,2.03,4.16,4.19,8.55,6.45,13.08,19.62,39.24,57.29,50.21,85.46,58.42,12.34,3.6,22.9,6.67,29.54,11.39,9.88,7.02,11.22,17.25-2.7,36.83-14,19.71-30.26,64.21-37.94,107.25-6.08,34.05-6.77,67.1,3.3,85.99,29.27,54.87,3.14,95.75-28.31,144.94-5.86,9.15-11.9,18.61-17.82,28.53-46.64,78.16-67.76,70.04-107.23,54.87-27.89-10.72-65.16-25.05-128.05-13.57-44.69,8.15-83.8,28.1-119.09,53.97-35.35,25.9-66.88,57.78-96.35,89.73-11.33,12.27-22.79,22.09-37.08,27.85-14.29,5.78-31.34,7.48-53.78,3.52-17.13-3.02-34.55-4.75-52.02-6.03v-2.67Z"/>
    <path class="cls-2" d="M0,1885.79c63.19,1.21,93.34-31.33,126.71-67.33,47.36-51.13,101.08-109.1,261.09-91.07,14.76,1.66,28.73,3.86,41.84,5.93,74.57,11.74,120.41,18.96,147.74-106.48,5.32-24.44-4.28-38.42-14.46-53.25-11.83-17.24-24.4-35.56-17.53-71.33,2.03-10.56,8.72-21.11,15.19-31.34,9.53-15.04,18.57-29.33,9.63-39.67-13.72-15.88-30.88-27.33-48.16-38.88-16.19-10.81-32.49-21.7-46.48-36.49-33.15-35.04-44.92-35.75-75.98-37.62-11.29-.68-25.06-1.51-43.12-4.09-53.36-7.62-77.26-32.38-112.3-68.68-4.88-5.05-9.97-10.33-15.27-15.69-24.4-24.7-36.23-48.33-48.77-73.37-6.28-12.53-12.73-25.42-21.14-39.08-21.16-34.4-50.01-57.01-79.62-80.22-19.56-15.33-39.45-30.92-57.79-50.35-7.83-8.3-14.8-15.48-21.57-21.56v-7.09c8.05,6.84,16.16,15.16,25.46,25,18.09,19.17,37.81,34.62,57.19,49.81,30.02,23.54,59.26,46.45,80.9,81.62,8.41,13.66,14.97,26.76,21.35,39.5,12.34,24.63,23.98,47.89,47.81,72.01,5.47,5.54,10.5,10.75,15.31,15.73,34.28,35.52,57.65,59.74,109.21,67.09,17.9,2.55,31.51,3.37,42.68,4.05,32.58,1.96,44.92,2.71,79.54,39.3,13.54,14.32,29.62,25.06,45.58,35.71,17.58,11.74,35.04,23.41,49.23,39.82,11.54,13.35,1.47,29.25-9.14,46.01-6.21,9.81-12.63,19.93-14.46,29.5-6.46,33.58,5.47,50.95,16.69,67.31,10.85,15.8,21.08,30.72,15.27,57.39-28.4,130.36-76.14,122.85-153.79,110.62-12.95-2.04-26.77-4.21-41.61-5.89-157.36-17.72-210.09,39.2-256.59,89.38-34.23,36.95-65.16,70.32-130.62,69.06v-5.34Z"/>
    <path class="cls-2" d="M0,1809.78c19.96-1.01,42.77-10.73,66.78-38.07,4.94-5.62,8.45-15.1,12.7-26.6,9.41-25.43,22.43-60.61,63.17-87.85,57.83-38.68,173.18-24.58,226.46-18.06l4.1,.5c11.5,1.4,22.91,1.41,33.44-.26h0c12.99-2.05,24.67-6.66,33.51-14.37,8.8-7.68,14.82-18.48,16.58-32.95,.89-7.31,.7-15.54-.76-24.78-2.33-14.76-5.4-28.38-10.09-44.69-4.71-16.36-11.04-35.35-19.91-60.86-21.14-60.81-47.99-64.64-87.81-70.32l-.86-.13c-25.22-3.6-62.37-15.86-97.12-32.12-30.63-14.33-59.44-31.79-76.65-49.22-23.1-23.39-25.84-38.15-28.75-53.85-1.71-9.2-3.47-18.73-9.62-30.58-3.68-7.1-6.88-13.87-9.96-20.4-10.77-22.82-20.12-42.64-44.21-63.19-29-24.74-52.3-41.54-71-52v-2.92c19.21,10.52,43.08,27.59,72.73,52.9,24.52,20.92,33.99,40.99,44.89,64.07,3.07,6.5,6.25,13.25,9.92,20.32,6.32,12.19,8.13,21.92,9.87,31.33,2.83,15.28,5.5,29.64,28.03,52.45,16.98,17.19,45.51,34.47,75.88,48.68,34.52,16.14,71.37,28.31,96.36,31.88l.86,.13c40.77,5.82,68.27,9.74,89.95,72.09,8.91,25.63,15.26,44.68,19.96,61.01,4.71,16.36,7.79,30.09,10.15,45.02,1.5,9.5,1.7,17.98,.79,25.5-1.85,15.18-8.2,26.53-17.48,34.63-9.24,8.07-21.38,12.88-34.85,15.01h0c-10.8,1.7-22.46,1.7-34.18,.28h0l-4.09-.5c-52.97-6.48-167.66-20.5-224.66,17.62-40.01,26.76-52.85,61.46-62.14,86.56-4.35,11.75-7.93,21.42-13.2,27.43-24.74,28.17-48.24,38.13-68.79,39.12v-2.81Z"/>
    <path class="cls-2" d="M0,1695.06c11.25-10.11,20.9-24.2,30.8-38.68,13.25-19.36,26.98-39.41,45.81-52.25,62.82-42.83,98.55-40.87,149.03-38.1,23.16,1.27,49.49,2.72,83.12-.04,9.96-.81,16.23-5.59,19.47-12.75,2.81-6.21,3.47-14.26,2.37-23.18-1.13-9.13-4.1-19.1-8.51-28.94-12.54-27.98-36.57-54.76-62.8-57.82-21.17-2.47-50.42-11.48-78.61-23.09-28.6-11.79-56.18-26.31-73.16-39.47-35.92-27.84-43.81-53.86-53.9-87.14-3.77-12.45-7.87-25.94-13.92-41-2.26-5.61-4.67-7.5-7.26-6.45-8.08,3.24-19.22,24.17-32.46,52.32v-12.33c11.75-24.1,21.96-41.52,30.47-44.95,5.77-2.31,10.55,.36,14.2,9.42,6.1,15.17,10.25,28.84,14.07,41.44,9.82,32.38,17.49,57.67,52.06,84.47,16.6,12.86,43.72,27.13,71.92,38.76,27.76,11.44,56.5,20.3,77.19,22.71,28.27,3.3,53.87,31.52,67.06,60.95,4.63,10.33,7.76,20.83,8.95,30.47,1.22,9.85,.43,18.87-2.81,26.02-4.05,8.94-11.76,14.89-23.92,15.88-33.92,2.78-60.47,1.32-83.83,.04-49.43-2.71-84.41-4.63-145.73,37.18-18.01,12.28-31.44,31.91-44.41,50.86-11.16,16.31-22,32.13-35.21,42.78v-7.12Z"/>
    <path class="cls-2" d="M0,1568.81c7.03-5.23,13.59-12,19.13-20.5,10.33-15.83,22.43-15.72,37.64-15.58,4.74,.05,9.8,.09,15.26-.38,4.96-.42,24-8.17,38.33-19.41,5.9-4.62,10.96-9.82,13.83-15.31,2.78-5.31,3.5-10.93,.87-16.57-2.41-5.15-7.6-10.39-16.52-15.53-3.22-1.85-6.49-3.52-9.66-5.13-14.62-7.44-27.39-13.94-40.44-42.66-7.23-15.9-14.36-20.4-21.99-16.31h0c-8.18,4.39-17.18,17.91-27.53,37.58-2.76,5.24-5.72,10.67-8.93,16.2v-5.38c2.32-4.1,4.5-8.14,6.57-12.07,10.59-20.11,19.9-34.01,28.63-38.68h0c9.26-4.97,17.62-.17,25.68,17.56,12.65,27.86,25.04,34.17,39.22,41.37,3.11,1.59,6.31,3.22,9.78,5.22,9.43,5.44,14.97,11.08,17.6,16.71,3.04,6.49,2.24,12.9-.92,18.93-3.07,5.86-8.39,11.35-14.56,16.18-14.73,11.55-34.54,19.52-39.75,19.97-5.48,.47-10.65,.42-15.5,.38-14.39-.13-25.85-.24-35.38,14.37-6.14,9.41-13.49,16.79-21.37,22.34v-3.29Z"/>
    <path class="cls-2" d="M1694.98,2124c-11.47-17.44-27.43-31.12-51.56-38.22-21.97-6.46-34.95-5.77-45.65-5.21-16.31,.87-27.62,1.47-55-21.03-5.92-4.87-10.4-16.9-15.83-31.53-5.63-15.16-12.34-33.21-22.45-48.19-43.73-64.82-57.74-100.25-44.48-114.27,13.15-13.89,52.55-5.41,115.91,17.33,21.93,7.87,43.52,17.68,65.25,27.55,65.12,29.56,131.62,59.76,208.13,38.33,42.11-11.78,83.47-20.17,125.11-23.84,41.67-3.67,83.64-2.62,126.92,4.48,8.24,1.35,15.75,2.59,22.66,3.74v5.41c-7.14-1.2-14.93-2.48-23.52-3.89-42.8-7.02-84.33-8.05-125.62-4.42-41.31,3.64-82.35,11.96-124.12,23.66-78.39,21.95-145.77-8.64-211.77-38.61-21.71-9.85-43.27-19.64-64.85-27.39-61.27-22-98.94-30.65-110.25-18.7-11.2,11.84,2.96,45.24,45.05,107.62,10.44,15.46,17.27,33.86,23.01,49.31,5.16,13.89,9.41,25.31,14.22,29.28,25.77,21.17,36.24,20.61,51.34,19.81,11.11-.59,24.58-1.3,47.43,5.41,27.14,7.98,44.37,23.59,56.51,43.35h-6.45Z"/>
    <path class="cls-2" d="M2124,2005.61c-10.73-2.22-22-4.25-34.13-6.23-38-6.23-74.93-6.98-111.57-3.59-36.64,3.39-73.01,10.93-109.88,21.25-38.31,10.73-62.91,4.58-96.75-3.86-6.84-1.71-14.05-3.51-21.68-5.25-23.91-5.46-45.17-13.86-65.83-22.02-30.44-12.03-59.61-23.56-93.85-24.29-2.87-.05-4.95,.62-6.36,1.84-1.85,1.62-2.63,4.32-2.56,7.65,.07,3.56,1.09,7.79,2.8,12.22,4.77,12.39,14.75,26.19,24.13,31.56,17.24,9.88,34.08,13.24,51.02,16.62,29.96,5.97,60.25,12.02,94.13,53.67,10.8,13.29,18.31,26.18,23.83,38.81h-2.93c-5.39-12.1-12.66-24.45-22.97-37.13-33.27-40.89-63.09-46.85-92.59-52.73-17.15-3.42-34.19-6.82-51.82-16.93-9.87-5.65-20.34-20.04-25.29-32.93-1.81-4.71-2.9-9.25-2.97-13.13-.08-4.1,.97-7.51,3.48-9.71,1.89-1.66,4.58-2.57,8.16-2.5,34.74,.74,64.12,12.35,94.77,24.47,20.59,8.14,41.77,16.51,65.43,21.91,7.84,1.79,14.98,3.57,21.74,5.25,33.45,8.35,57.76,14.43,95.39,3.9,37-10.36,73.52-17.93,110.36-21.34,36.85-3.41,74-2.66,112.23,3.6,11.96,1.96,23.09,3.96,33.7,6.14v2.73Z"/>
    <path class="cls-2" d="M2124,2072.61c-5.84-1.03-12.54-2.08-20.7-3.36-7.03-1.1-15.12-2.36-24.25-3.85-33.03-5.41-61.55-6.68-89.81-4.36-28.26,2.33-56.29,8.25-88.3,17.22-6.48,1.81-16.32,1.85-26.63,1.89-18.76,.07-39.15,.16-41.64,10.82-2.59,11.1-.12,22.01,4.33,33.03h-2.88c-4.37-11.1-6.72-22.18-4.05-33.64,2.97-12.71,24.46-12.8,44.24-12.88,10.11-.04,19.77-.08,25.92-1.8,32.19-9.02,60.36-14.97,88.81-17.31h0c28.45-2.34,57.17-1.06,90.45,4.39,9.57,1.57,17.41,2.79,24.23,3.85,7.96,1.24,14.55,2.28,20.29,3.28v2.71Z"/>
    <path class="cls-2" d="M950.51,1737.06c-2.29,8.56-5.16,17.39-8.02,26.16-6.37,19.54-12.67,38.85-12.05,54.4,.89,22.39,16.82,37.53,69.95,35.41,25.1-1,45.51,2.97,65.24,6.8,37.84,7.37,73.19,14.24,134.44-16.68,12.03-6.07,18.98-13.1,22.44-20.31,2.48-5.19,3.18-10.51,2.7-15.66-.5-5.25-2.23-10.34-4.56-14.97-5.14-10.19-13.05-17.92-17.4-20.01-45.18-21.67-75.25-41.77-95.91-63.12-20.8-21.49-32.04-44.19-39.48-70.97-11.92-42.93-6.89-77.87-1.39-115.99,1.33-9.22,2.69-18.61,3.83-28.34,1.47-12.5,6-25.86,10.69-39.71,13.96-41.18,29.44-86.87-34.96-121.95-20.37-11.09-34.44-5.22-45.44,9.89-11.58,15.89-20.08,41.9-28.8,69.52-14.17,44.88-11.22,85.82-7.92,131.58,3.85,53.44,8.17,113.38-13.36,193.95h0Zm-13.1,24.51c2.82-8.67,5.67-17.38,7.94-25.89,21.29-79.71,17.01-139.18,13.19-192.2-3.33-46.3-6.32-87.73,8.15-133.57,8.85-28.02,17.49-54.42,29.6-71.05,12.68-17.41,28.87-24.19,52.3-11.43,68.35,37.23,52.12,85.16,37.48,128.35-4.6,13.58-9.04,26.68-10.44,38.61-1.15,9.8-2.51,19.24-3.84,28.48-5.42,37.56-10.38,71.98,1.24,113.81,7.21,25.94,18.08,47.92,38.17,68.68,20.23,20.91,49.82,40.66,94.38,62.03,5.09,2.44,14.19,11.15,19.87,22.41,2.6,5.16,4.54,10.9,5.1,16.87,.57,6.06-.26,12.33-3.2,18.46-3.95,8.22-11.66,16.12-24.85,22.78-62.89,31.75-99.08,24.71-137.84,17.16-19.46-3.78-39.58-7.7-64.03-6.72-57.27,2.29-74.47-15.01-75.49-40.53-.66-16.53,5.78-36.27,12.3-56.26Z"/>
    <path class="cls-2" d="M999.86,1788.84c3.12,1.48,6.78,3.26,10.49,5.06,31.48,15.29,67.56,32.79,87.78,20.9,10.84-6.38,11.79-15.32,7.62-25.08-4.34-10.2-14.13-21.31-24.26-31.45-24.01-24.01-46.46-27.17-63.1-21.07-7.93,2.91-14.56,7.93-19.4,13.78-4.83,5.84-7.88,12.48-8.69,18.69-1.05,8.09,1.77,15.46,9.54,19.17h0Zm9.33,7.47c-3.41-1.66-6.76-3.28-10.48-5.05-8.97-4.27-12.23-12.68-11.03-21.91,.87-6.71,4.13-13.85,9.27-20.06,5.13-6.2,12.14-11.5,20.54-14.58,17.5-6.43,41-3.23,65.91,21.68,10.32,10.32,20.31,21.69,24.82,32.29,4.7,11.03,3.6,21.17-8.73,28.42-21.45,12.62-58.22-5.22-90.29-20.79Z"/>
    <path class="cls-2" d="M0,634.23c21.62,6.16,50.51,17.94,94.49,40.82,42.39,22.05,76.96,49.25,115.85,79.85l8.11,6.38,4.12,3.23c41.32,32.42,87.36,68.56,113.93,114.17,1.54,2.65,3.88,6.7,6.22,10.76,27.59,47.88,56.12,97.39,121.49,117.29,34.89,10.62,72.23,16.28,106.64,21.5,35.64,5.4,68.17,10.33,92.08,19.9,27.18,10.87,41.83,30.48,56.42,50.02,10.74,14.38,21.45,28.73,37.1,39.16h0c8.22,5.49,17.97,13.01,28.77,21.34,38.09,29.41,89.5,69.08,129.54,62.01,39.34-6.94,40.45-31.79,41.52-56,.31-6.98,.62-13.91,1.75-20.43h0l.14-.81c2.51-15.07,4.4-43.6-1.12-69.5-5.39-25.32-17.9-48.1-43.99-52.63h0s-.37-.07-.37-.07c-14.61-2.43-31.85-4.79-50.86-7.39-53.96-7.37-122.18-16.7-184.21-35.07-42-12.45-75.19-23.08-103.01-36.86-27.98-13.86-50.48-30.88-70.9-56.01-20.26-24.94-37.14-46.77-50.55-72.17-13.43-25.44-23.34-54.4-29.59-93.49-4.36-27.27-5.92-56.37-7.43-84.7-2.79-52.14-5.44-101.69-25.2-131.34-29.91-44.87-156.05-48.37-266.19-51.42l-3.68-.1c-66.61-1.85-87.1-16.82-115.82-37.81-1.71-1.25-3.46-2.52-5.25-3.82v-6.58c2.9,2.08,5.69,4.11,8.4,6.09,27.94,20.42,47.87,34.98,112.81,36.79l3.69,.1c111.44,3.09,239.06,6.63,270.5,53.78,20.56,30.84,23.25,81.12,26.08,134.04,1.51,28.2,3.06,57.16,7.37,84.14,6.15,38.44,15.88,66.88,29.05,91.83,13.19,25.01,29.9,46.61,49.96,71.3,19.89,24.48,41.83,41.06,69.12,54.58,27.47,13.61,60.42,24.16,102.15,36.52,61.66,18.27,129.64,27.55,183.42,34.9,19.12,2.62,36.46,4.99,51.03,7.41l.38,.06h.01c28.83,5.01,42.52,29.56,48.32,56.8,5.68,26.67,3.74,55.99,1.16,71.48l-.14,.82v.02c-1.09,6.26-1.39,12.99-1.69,19.76-1.17,26.34-2.37,53.36-45.93,61.05-42.35,7.47-94.83-33.03-133.72-63.05-10.73-8.29-20.42-15.76-28.47-21.13h0c-16.41-10.93-27.4-25.66-38.42-40.41-14.15-18.94-28.35-37.96-54.12-48.27-23.29-9.31-55.54-14.21-90.89-19.56-34.53-5.24-72-10.92-107.39-21.69-67.4-20.51-96.46-70.96-124.57-119.73-1.8-3.13-3.6-6.25-6.22-10.74-26.04-44.7-71.66-80.51-112.61-112.64l-4.12-3.24-8.11-6.38c-38.67-30.43-73.05-57.48-115.01-79.31-42.66-22.19-70.89-33.82-92.02-39.99v-5.57Z"/>
    <path class="cls-2" d="M896.84,1156.67c2.85-.77,5.17-2.88,7-5.91,3.25-5.38,4.92-13.61,5.18-22.66,.27-9.15-.9-19.1-3.3-27.84-2.8-10.21-7.26-18.71-13.01-22.19-7.03-4.25-53.67-11.48-82.9-9.84-7.34,.41-13.53,1.38-17.64,3.1-3.59,1.5-5.44,3.57-4.76,6.32,.92,3.73,5.71,8.78,15.73,15.46h0c4.86,3.25,11.86,10.15,20.13,18.31,21.54,21.25,51.89,51.19,73.54,45.25h0ZM0,569.79v-2.72c14.57,2.99,28.64,7.11,42.46,12.06,27.75,9.95,54.46,23.28,82.29,37.75,68.85,35.81,100.12,71.46,141.86,119.06,9.64,10.99,19.84,22.62,31.09,34.93,35.16,38.46,50.92,27.6,57.31-1.79,6.66-30.64,3.66-80.63,1.32-117.82-.22-3.53-.41-8.16-.62-13.45-1.19-29.39-3.23-79.93-17.93-94.98-22.26-22.81-139.68-23.84-196.23-24.34-9.31-.08-16.99-.15-22.31-.3-60.66-1.68-92.98-12.92-119.24-28.22v-3.1c26.22,15.52,58.28,26.96,119.31,28.66,5.34,.15,12.98,.22,22.26,.3,56.92,.5,175.08,1.54,198.12,25.14,15.4,15.78,17.47,66.97,18.68,96.73,.21,5.2,.39,9.74,.62,13.39,2.35,37.36,5.37,87.58-1.37,118.56-7.01,32.23-24.07,44.39-61.89,3.02-11.39-12.46-21.54-24.04-31.14-34.98-41.55-47.37-72.66-82.85-141.09-118.45-27.77-14.45-54.4-27.74-81.95-37.62-13.54-4.85-27.3-8.89-41.56-11.85H0Zm906.13,582.35c-2.18,3.6-5.02,6.12-8.59,7.1-23.12,6.35-54.11-24.22-76.11-45.92-8.17-8.06-15.09-14.88-19.74-17.99h0c-10.64-7.09-15.78-12.68-16.85-17.05-1.06-4.31,1.41-7.37,6.32-9.43,4.4-1.83,10.89-2.87,18.51-3.29,29.62-1.66,77.17,5.83,84.43,10.21,6.38,3.85,11.23,12.95,14.2,23.77,2.46,8.99,3.66,19.22,3.39,28.61-.28,9.49-2.06,18.17-5.56,23.97Z"/>
    <path class="cls-2" d="M205.1,586.48c.06,12,9.42,23.12,22.11,32.4,18.7,13.68,44.39,23.17,59.02,25.9,3.08,.58,5.37,.3,6.97-.62,1.91-1.09,3.03-3.25,3.52-6.06,.57-3.25,.32-7.26-.54-11.53-2.32-11.52-8.88-24.6-15.52-30.38-6.67-5.79-24.5-14.64-41.49-19.14-7.65-2.03-15.07-3.15-21.12-2.66-5.46,.44-9.69,2.2-11.64,5.85-.87,1.63-1.34,3.69-1.33,6.23h0Zm18.95,36.7c-13.93-10.18-24.22-22.69-24.28-36.68-.01-3.47,.68-6.37,1.95-8.77,2.93-5.49,8.67-8.09,15.92-8.67,6.67-.53,14.7,.66,22.89,2.83,17.72,4.69,36.49,14.07,43.62,20.27,7.44,6.47,14.73,20.84,17.25,33.37,.99,4.91,1.27,9.6,.59,13.49-.77,4.35-2.71,7.82-6.14,9.78-2.69,1.53-6.18,2.06-10.61,1.23-15.18-2.84-41.82-12.68-61.2-26.84Z"/>
  </g>
</svg>