<svg width="201" height="241" viewBox="0 0 201 241" fill="none" xmlns="http://www.w3.org/2000/svg">
<g opacity="0.3">
<path opacity="0.3" d="M139.67 49.25C134.203 49.2447 128.961 47.0704 125.095 43.2046C121.229 39.3387 119.055 34.097 119.05 28.6299V1.85854e-06H26.92C23.3853 -0.00131167 19.8849 0.693646 16.6189 2.04541C13.3529 3.39718 10.3851 5.37922 7.88525 7.87818C5.38537 10.3771 3.4023 13.3441 2.04932 16.6096C0.696337 19.8751 -2.4406e-07 23.3752 0 26.9099V189.13C-2.4406e-07 192.665 0.696337 196.165 2.04932 199.43C3.4023 202.696 5.38537 205.663 7.88525 208.162C10.3851 210.661 13.3529 212.643 16.6189 213.994C19.8849 215.346 23.3853 216.041 26.92 216.04H137.52C144.657 216.04 151.502 213.205 156.548 208.158C161.595 203.112 164.43 196.267 164.43 189.13V49.25H139.67Z" fill="#5B5B5B"/>
</g>
<path d="M164.43 49.25H139.67C134.203 49.2447 128.961 47.0704 125.095 43.2046C121.229 39.3387 119.055 34.097 119.05 28.6299V0L164.43 49.25Z" fill="#5B5B5B"/>
<path d="M130.6 83.7302H27.36C26.3681 83.7302 25.4169 83.3362 24.7155 82.6348C24.0141 81.9334 23.62 80.9821 23.62 79.9902C23.6187 79.4982 23.7145 79.0108 23.9019 78.5559C24.0892 78.101 24.3645 77.6875 24.7119 77.3391C25.0593 76.9908 25.472 76.7145 25.9264 76.5259C26.3808 76.3373 26.868 76.2402 27.36 76.2402H130.6C131.595 76.2402 132.548 76.6354 133.252 77.3386C133.955 78.0419 134.35 78.9957 134.35 79.9902C134.347 80.9831 133.951 81.9344 133.248 82.6355C132.545 83.3366 131.593 83.7302 130.6 83.7302V83.7302Z" fill="#5B5B5B"/>
<path d="M130.6 106.1H27.36C26.3681 106.1 25.4169 105.706 24.7155 105.005C24.0141 104.303 23.62 103.352 23.62 102.36C23.6187 101.868 23.7145 101.381 23.9019 100.926C24.0892 100.471 24.3645 100.058 24.7119 99.7092C25.0593 99.3609 25.472 99.0846 25.9264 98.896C26.3808 98.7074 26.868 98.6103 27.36 98.6104H130.6C131.595 98.6104 132.548 99.0052 133.252 99.7085C133.955 100.412 134.35 101.366 134.35 102.36C134.347 103.353 133.951 104.304 133.248 105.005C132.545 105.706 131.593 106.1 130.6 106.1V106.1Z" fill="#5B5B5B"/>
<path d="M130.6 128.47H27.36C26.868 128.47 26.3808 128.373 25.9264 128.184C25.472 127.996 25.0593 127.719 24.7119 127.371C24.3645 127.023 24.0892 126.609 23.9019 126.154C23.7145 125.699 23.6187 125.212 23.62 124.72C23.62 123.728 24.0141 122.777 24.7155 122.075C25.4169 121.374 26.3681 120.98 27.36 120.98H130.6C131.593 120.98 132.545 121.374 133.248 122.075C133.951 122.776 134.347 123.727 134.35 124.72C134.35 125.715 133.955 126.668 133.252 127.372C132.548 128.075 131.595 128.47 130.6 128.47Z" fill="#5B5B5B"/>
<path d="M89.86 150.84H27.36C26.868 150.84 26.3808 150.743 25.9264 150.554C25.472 150.366 25.0593 150.089 24.7119 149.741C24.3645 149.393 24.0892 148.979 23.9019 148.524C23.7145 148.07 23.6187 147.582 23.62 147.09C23.62 146.098 24.0141 145.147 24.7155 144.445C25.4169 143.744 26.3681 143.35 27.36 143.35H89.86C90.8519 143.35 91.8031 143.744 92.5045 144.445C93.2059 145.147 93.6 146.098 93.6 147.09C93.6013 147.582 93.5055 148.07 93.3181 148.524C93.1308 148.979 92.8555 149.393 92.5081 149.741C92.1606 150.089 91.748 150.366 91.2936 150.554C90.8392 150.743 90.352 150.84 89.86 150.84Z" fill="#5B5B5B"/>
<path d="M183.95 170.61H58.91C50.0403 170.61 42.85 177.8 42.85 186.67V223.95C42.85 232.82 50.0403 240.01 58.91 240.01H183.95C192.82 240.01 200.01 232.82 200.01 223.95V186.67C200.01 177.8 192.82 170.61 183.95 170.61Z" fill="#5B5B5B"/>
<path d="M118.27 190V220.07H111V190H118.27Z" fill="white"/>
<path d="M131.3 214.5H141V220.07H124V190H131.27L131.3 214.5Z" fill="white"/>
<path d="M152.28 195.79V202.08H162.44V207.57H152.28V214.25H163.72V220.07H145V190H163.72V195.79H152.28Z" fill="white"/>
<path d="M106.61 190V195.79H94.27V202.43H103.8V207.96H94.27V220.12H87V190.05L106.61 190Z" fill="white"/>
</svg>
