<svg width="200" height="240" viewBox="0 0 200 240" fill="none" xmlns="http://www.w3.org/2000/svg">
<g opacity="0.3">
<path opacity="0.3" d="M139.67 49.24C134.203 49.2347 128.961 47.0606 125.095 43.1947C121.229 39.3288 119.055 34.0871 119.05 28.62V0H26.91C19.773 0 12.9284 2.83511 7.88176 7.88171C2.83516 12.9283 0 19.7731 0 26.91V189.12C0.0079507 196.252 2.84661 203.089 7.89235 208.129C12.9381 213.169 19.7782 216 26.91 216H137.51C141.045 216 144.546 215.304 147.812 213.951C151.078 212.598 154.046 210.615 156.545 208.115C159.045 205.616 161.028 202.648 162.381 199.382C163.734 196.116 164.43 192.615 164.43 189.08V49.2L139.67 49.24Z" fill="#005FAD"/>
</g>
<path d="M164.43 49.24H139.67C134.203 49.2347 128.961 47.0606 125.095 43.1947C121.229 39.3288 119.055 34.0871 119.05 28.62V0L164.43 49.24Z" fill="#005FAD"/>
<path d="M183.94 170.6H58.9C50.0303 170.6 42.84 177.79 42.84 186.66V223.94C42.84 232.81 50.0303 240 58.9 240H183.94C192.81 240 200 232.81 200 223.94V186.66C200 177.79 192.81 170.6 183.94 170.6Z" fill="#005FAD"/>
<path d="M98.12 213.37V220.65H90.59V213.37H98.12Z" fill="white"/>
<path d="M109.18 210.1V220.65H101.9V190.58H113.69C117.257 190.58 119.977 191.463 121.85 193.23C122.796 194.16 123.535 195.28 124.019 196.515C124.504 197.751 124.722 199.075 124.66 200.4C124.691 202.149 124.257 203.875 123.4 205.4C122.535 206.895 121.238 208.094 119.68 208.84C117.809 209.732 115.752 210.164 113.68 210.1H109.18ZM117.26 200.4C117.26 197.733 115.8 196.4 112.88 196.4H109.18V204.23H112.88C115.8 204.257 117.26 202.98 117.26 200.4Z" fill="white"/>
<path d="M148.63 216.56C147.769 217.946 146.526 219.054 145.05 219.75C143.264 220.593 141.304 221.001 139.33 220.94C136.358 221.061 133.429 220.197 131 218.48C129.924 217.675 129.043 216.637 128.423 215.444C127.803 214.251 127.46 212.934 127.42 211.59H135.16C135.224 212.603 135.658 213.557 136.38 214.27C137.097 214.94 138.049 215.299 139.03 215.27C139.841 215.317 140.638 215.044 141.25 214.51C141.513 214.249 141.72 213.937 141.858 213.593C141.996 213.249 142.061 212.88 142.05 212.51C142.063 212.157 142.004 211.804 141.876 211.474C141.749 211.144 141.557 210.843 141.31 210.59C140.781 210.056 140.153 209.631 139.46 209.34C138.72 209.013 137.7 208.623 136.4 208.17C134.806 207.646 133.249 207.015 131.74 206.28C130.496 205.637 129.428 204.7 128.63 203.55C127.715 202.158 127.264 200.513 127.34 198.85C127.298 197.202 127.774 195.583 128.7 194.22C129.645 192.885 130.949 191.845 132.46 191.22C134.209 190.514 136.084 190.173 137.97 190.22C140.832 190.062 143.66 190.903 145.97 192.6C146.951 193.399 147.754 194.395 148.328 195.523C148.901 196.651 149.233 197.886 149.3 199.15H141.44C141.342 198.266 140.96 197.438 140.35 196.79C140.036 196.493 139.665 196.262 139.259 196.112C138.854 195.963 138.422 195.897 137.99 195.92C137.243 195.882 136.508 196.124 135.93 196.6C135.657 196.853 135.444 197.164 135.307 197.51C135.17 197.856 135.113 198.229 135.14 198.6C135.131 198.931 135.189 199.261 135.309 199.57C135.429 199.879 135.61 200.161 135.84 200.4C136.343 200.92 136.945 201.335 137.61 201.62C138.32 201.93 139.34 202.33 140.67 202.81C142.291 203.331 143.869 203.976 145.39 204.74C146.644 205.41 147.723 206.366 148.54 207.53C149.471 208.938 149.933 210.604 149.86 212.29C149.843 213.798 149.418 215.274 148.63 216.56Z" fill="white"/>
<path d="M50.06 130.81C50.06 130.81 43.54 116.98 51.97 103.48C51.97 103.48 54.46 110.74 56.51 110.26C56.51 110.26 53.9 99.8501 55.82 96.7701C55.82 96.7701 64.14 84.8501 73.33 78.4001C73.33 78.4001 73.62 85.49 75.78 86.07C75.78 86.07 75.44 81.69 78.49 75.07C78.49 75.07 93.29 63.67 117.99 64.71C117.99 64.71 108.24 79.8 102.76 89.99C99.8648 95.4881 96.6803 100.829 93.22 105.99C93.22 105.99 85.96 110.24 81.22 109.84C81.22 109.84 85.22 112.98 89.56 111.42C89.56 111.42 78.51 131.42 57.07 133.95C57.07 133.95 53.07 142.18 52.27 149.38C52.27 149.38 48.27 151.8 46.39 151.38C46.39 151.38 56.76 111.54 92.11 82.69C92.16 82.69 71.78 88.0801 50.06 130.81Z" fill="#005FAD"/>
</svg>
