<svg width="201" height="241" viewBox="0 0 201 241" fill="none" xmlns="http://www.w3.org/2000/svg">
<g opacity="0.3">
<path opacity="0.3" d="M140 49.25C134.532 49.2447 129.289 47.0709 125.422 43.2053C121.554 39.3398 119.378 34.0979 119.37 28.6299V0H27.2C20.063 0 13.2184 2.83523 8.17175 7.88184C3.12515 12.9284 0.290039 19.7729 0.290039 26.9099V189.13C0.300637 196.26 3.14046 203.094 8.18591 208.132C13.2314 213.17 20.0699 216 27.2 216H137.8C144.937 216 151.782 213.165 156.828 208.118C161.875 203.072 164.71 196.227 164.71 189.09V49.21L140 49.25Z" fill="#FF3E4C"/>
</g>
<path d="M164.71 49.25H140C134.532 49.2447 129.289 47.0709 125.422 43.2053C121.554 39.3398 119.378 34.0979 119.37 28.6299V0L164.71 49.25Z" fill="#FF3E4C"/>
<path d="M184.23 170.61H59.1899C50.3202 170.61 43.13 177.8 43.13 186.67V223.95C43.13 232.82 50.3202 240.01 59.1899 240.01H184.23C193.1 240.01 200.29 232.82 200.29 223.95V186.67C200.29 177.8 193.1 170.61 184.23 170.61Z" fill="#FF3E4C"/>
<path d="M89.33 210.1V220.65H82.05V190.58H93.84C97.4133 190.58 100.133 191.467 102 193.24C102.948 194.169 103.688 195.289 104.172 196.524C104.656 197.76 104.874 199.084 104.81 200.41C104.843 202.159 104.408 203.885 103.55 205.41C102.682 206.906 101.387 208.107 99.83 208.86C97.9582 209.749 95.901 210.178 93.83 210.11L89.33 210.1ZM97.41 200.41C97.41 197.743 95.95 196.41 93.03 196.41H89.33V204.24H93.03C95.95 204.267 97.41 202.99 97.41 200.41Z" fill="white"/>
<path d="M115.44 190.58V207.93C115.33 209.561 115.805 211.178 116.78 212.49C117.269 213.027 117.872 213.447 118.546 213.719C119.219 213.991 119.945 214.108 120.67 214.06C121.396 214.108 122.124 213.992 122.799 213.72C123.475 213.449 124.08 213.028 124.57 212.49C125.545 211.178 126.02 209.561 125.91 207.93V190.58H133.18V207.93C133.265 210.424 132.692 212.897 131.52 215.1C130.477 216.976 128.9 218.5 126.99 219.48C124.976 220.484 122.75 220.989 120.5 220.95C118.287 220.996 116.096 220.498 114.12 219.5C112.259 218.522 110.747 216.992 109.79 215.12C108.674 212.892 108.131 210.421 108.21 207.93V190.58H115.44Z" fill="white"/>
<path d="M160.38 207.81C161.432 209.122 161.994 210.759 161.97 212.44C162.023 213.569 161.819 214.696 161.374 215.735C160.929 216.774 160.254 217.699 159.4 218.44C157.68 219.887 155.22 220.61 152.02 220.61H138.02V190.54H151.67C154.73 190.54 157.097 191.207 158.77 192.54C159.61 193.224 160.275 194.097 160.711 195.088C161.148 196.079 161.343 197.159 161.28 198.24C161.338 199.871 160.829 201.472 159.84 202.77C158.885 203.969 157.547 204.802 156.05 205.13C157.76 205.496 159.29 206.443 160.38 207.81ZM145.3 202.87H150.06C152.59 202.87 153.85 201.8 153.85 199.64C153.85 197.48 152.56 196.41 149.98 196.41H145.3V202.87ZM154.53 211.42C154.552 210.946 154.468 210.473 154.285 210.036C154.102 209.598 153.823 209.207 153.47 208.89C152.611 208.237 151.547 207.914 150.47 207.98H145.32V214.74H150.51C153.183 214.74 154.523 213.633 154.53 211.42Z" fill="white"/>
<path d="M71.3001 83.73H27.64C26.6481 83.73 25.6968 83.3359 24.9954 82.6345C24.294 81.9331 23.9 80.9819 23.9 79.99C23.8987 79.498 23.9944 79.0106 24.1818 78.5557C24.3691 78.1008 24.6444 77.6872 24.9918 77.3389C25.3393 76.9905 25.752 76.7142 26.2064 76.5256C26.6608 76.3371 27.148 76.24 27.64 76.24H71.3001C72.2877 76.2532 73.2301 76.6554 73.9229 77.3594C74.6156 78.0634 75.0027 79.0123 75 80C74.9949 80.9825 74.6043 81.9238 73.9124 82.6213C73.2204 83.3189 72.2825 83.7169 71.3001 83.73Z" fill="#FF3E4C"/>
<path d="M71.3001 106.1H27.64C26.6481 106.1 25.6968 105.706 24.9954 105.005C24.294 104.303 23.9 103.352 23.9 102.36C23.8987 101.868 23.9944 101.381 24.1818 100.926C24.3691 100.471 24.6444 100.057 24.9918 99.709C25.3393 99.3606 25.752 99.0843 26.2064 98.8958C26.6608 98.7072 27.148 98.6101 27.64 98.6101H71.3001C72.2929 98.6128 73.2441 99.0089 73.9452 99.7119C74.6463 100.415 75.0401 101.367 75.0401 102.36C75.0374 103.351 74.6425 104.301 73.9417 105.002C73.2409 105.703 72.2912 106.097 71.3001 106.1Z" fill="#FF3E4C"/>
<path d="M71.3001 128.47H27.64C27.148 128.47 26.6608 128.373 26.2064 128.184C25.752 127.996 25.3393 127.719 24.9918 127.371C24.6444 127.023 24.3691 126.609 24.1818 126.154C23.9944 125.699 23.8987 125.212 23.9 124.72C23.9 123.728 24.294 122.777 24.9954 122.075C25.6968 121.374 26.6481 120.98 27.64 120.98H71.3001C72.2912 120.983 73.2409 121.378 73.9417 122.078C74.6425 122.779 75.0374 123.729 75.0401 124.72C75.0401 125.713 74.6463 126.665 73.9452 127.368C73.2441 128.071 72.2929 128.467 71.3001 128.47Z" fill="#FF3E4C"/>
<path d="M71.3001 150.84H27.64C27.148 150.84 26.6608 150.743 26.2064 150.554C25.752 150.366 25.3393 150.089 24.9918 149.741C24.6444 149.393 24.3691 148.979 24.1818 148.524C23.9944 148.07 23.8987 147.582 23.9 147.09C23.9 146.098 24.294 145.147 24.9954 144.445C25.6968 143.744 26.6481 143.35 27.64 143.35H71.3001C72.2912 143.353 73.2409 143.747 73.9417 144.448C74.6425 145.149 75.0374 146.099 75.0401 147.09C75.0401 148.083 74.6463 149.035 73.9452 149.738C73.2441 150.441 72.2929 150.837 71.3001 150.84Z" fill="#FF3E4C"/>
<path d="M130.88 83.73H88.32C87.328 83.73 86.3768 83.3359 85.6754 82.6345C84.974 81.9331 84.58 80.9819 84.58 79.99C84.5787 79.498 84.6745 79.0106 84.8618 78.5557C85.0492 78.1008 85.3245 77.6872 85.6719 77.3389C86.0193 76.9905 86.4321 76.7142 86.8865 76.5256C87.3409 76.3371 87.828 76.24 88.32 76.24H130.88C131.875 76.24 132.828 76.6351 133.532 77.3384C134.235 78.0416 134.63 78.9954 134.63 79.99C134.627 80.9828 134.231 81.9342 133.528 82.6353C132.825 83.3364 131.873 83.73 130.88 83.73Z" fill="#FF3E4C"/>
<path d="M130.88 106.1H88.32C87.328 106.1 86.3768 105.706 85.6754 105.005C84.974 104.303 84.58 103.352 84.58 102.36C84.5787 101.868 84.6745 101.381 84.8618 100.926C85.0492 100.471 85.3245 100.057 85.6719 99.709C86.0193 99.3606 86.4321 99.0843 86.8865 98.8958C87.3409 98.7072 87.828 98.6101 88.32 98.6101H130.88C131.875 98.6101 132.828 99.005 133.532 99.7083C134.235 100.412 134.63 101.366 134.63 102.36C134.627 103.353 134.231 104.304 133.528 105.005C132.825 105.706 131.873 106.1 130.88 106.1Z" fill="#FF3E4C"/>
<path d="M130.88 128.47H88.32C87.828 128.47 87.3409 128.373 86.8865 128.184C86.4321 127.996 86.0193 127.719 85.6719 127.371C85.3245 127.023 85.0492 126.609 84.8618 126.154C84.6745 125.699 84.5787 125.212 84.58 124.72C84.58 123.728 84.974 122.777 85.6754 122.075C86.3768 121.374 87.328 120.98 88.32 120.98H130.88C131.873 120.98 132.825 121.374 133.528 122.075C134.231 122.776 134.627 123.727 134.63 124.72C134.63 125.715 134.235 126.668 133.532 127.372C132.828 128.075 131.875 128.47 130.88 128.47Z" fill="#FF3E4C"/>
<path d="M130.88 150.84H88.32C87.828 150.84 87.3409 150.743 86.8865 150.554C86.4321 150.366 86.0193 150.089 85.6719 149.741C85.3245 149.393 85.0492 148.979 84.8618 148.524C84.6745 148.07 84.5787 147.582 84.58 147.09C84.58 146.098 84.974 145.147 85.6754 144.445C86.3768 143.744 87.328 143.35 88.32 143.35H130.88C131.873 143.35 132.825 143.744 133.528 144.445C134.231 145.146 134.627 146.097 134.63 147.09C134.63 148.085 134.235 149.038 133.532 149.742C132.828 150.445 131.875 150.84 130.88 150.84Z" fill="#FF3E4C"/>
</svg>
