<svg width="201" height="241" viewBox="0 0 201 241" fill="none" xmlns="http://www.w3.org/2000/svg">
<g opacity="0.3">
<path opacity="0.3" d="M139.81 49.25C134.342 49.2421 129.1 47.0657 125.235 43.1982C121.369 39.3308 119.195 34.0881 119.19 28.62V1.85821e-06H27.0601C23.5253 -0.00131167 20.0249 0.693768 16.7589 2.04553C13.4929 3.3973 10.5252 5.37922 8.02527 7.87818C5.52538 10.3771 3.54231 13.3441 2.18933 16.6096C0.836352 19.8751 0.140014 23.3753 0.140015 26.91V189.13C0.140014 192.665 0.836352 196.165 2.18933 199.43C3.54231 202.696 5.52538 205.663 8.02527 208.162C10.5252 210.661 13.4929 212.643 16.7589 213.995C20.0249 215.346 23.5253 216.041 27.0601 216.04H137.66C144.797 216.04 151.642 213.205 156.688 208.158C161.735 203.112 164.57 196.267 164.57 189.13V49.25H139.81Z" fill="#A140FF"/>
</g>
<path d="M164.57 49.25H139.81C134.342 49.2421 129.1 47.0657 125.235 43.1982C121.369 39.3308 119.195 34.0881 119.19 28.62V0L164.57 49.25Z" fill="#A140FF"/>
<path d="M184.09 170.61H59.05C50.1803 170.61 42.99 177.8 42.99 186.67V223.95C42.99 232.82 50.1803 240.01 59.05 240.01H184.09C192.96 240.01 200.15 232.82 200.15 223.95V186.67C200.15 177.8 192.96 170.61 184.09 170.61Z" fill="#A140FF"/>
<path d="M82.05 213.38V220.65H74.52V213.38H82.05Z" fill="white"/>
<path d="M101.28 220.65L94.77 209.29H93.11V220.65H85.84V190.58H98.26C100.328 190.523 102.381 190.944 104.26 191.81C105.802 192.543 107.09 193.72 107.96 195.19C108.797 196.693 109.222 198.39 109.19 200.11C109.248 202.12 108.609 204.088 107.38 205.68C106.041 207.297 104.188 208.405 102.13 208.82L109.28 220.65H101.28ZM93.11 204.32H97.62C98.7721 204.407 99.9136 204.049 100.81 203.32C101.165 202.944 101.438 202.498 101.61 202.011C101.782 201.524 101.85 201.005 101.81 200.49C101.843 199.978 101.772 199.465 101.6 198.982C101.428 198.499 101.159 198.056 100.81 197.68C99.9258 196.943 98.787 196.584 97.64 196.68H93.13L93.11 204.32Z" fill="white"/>
<path d="M131.52 215.16H120.25L118.37 220.65H110.72L121.72 190.79H130.09L141.09 220.65H133.35L131.52 215.16ZM129.65 209.63L125.9 198.57L122.12 209.63H129.65Z" fill="white"/>
<path d="M159.38 220.65L152.87 209.29H151.21V220.65H143.94V190.58H156.36C158.428 190.523 160.481 190.944 162.36 191.81C163.902 192.543 165.191 193.72 166.06 195.19C166.897 196.693 167.322 198.39 167.29 200.11C167.349 202.12 166.709 204.088 165.48 205.68C164.141 207.297 162.288 208.405 160.23 208.82L167.38 220.65H159.38ZM151.21 204.32H155.72C156.872 204.405 158.013 204.047 158.91 203.32C159.265 202.944 159.538 202.498 159.71 202.011C159.882 201.524 159.95 201.005 159.91 200.49C159.943 199.978 159.872 199.465 159.7 198.982C159.528 198.499 159.259 198.056 158.91 197.68C158.026 196.943 156.887 196.584 155.74 196.68H151.23L151.21 204.32Z" fill="white"/>
<path d="M95.11 150.84H32.59C31.5971 150.837 30.6459 150.441 29.9448 149.738C29.2437 149.035 28.85 148.083 28.85 147.09C28.85 146.098 29.244 145.147 29.9454 144.445C30.6468 143.744 31.5981 143.35 32.59 143.35H95.11C95.602 143.349 96.0894 143.444 96.5443 143.632C96.9992 143.819 97.4126 144.094 97.761 144.442C98.1093 144.789 98.3858 145.202 98.5743 145.657C98.7629 146.111 98.86 146.598 98.86 147.09C98.86 148.085 98.4649 149.038 97.7616 149.742C97.0583 150.445 96.1045 150.84 95.11 150.84Z" fill="#A140FF"/>
<path d="M95.11 128.75H32.59C31.5971 128.747 30.6459 128.351 29.9448 127.648C29.2437 126.945 28.85 125.993 28.85 125C28.8526 124.009 29.2475 123.059 29.9484 122.358C30.6492 121.657 31.5989 121.263 32.59 121.26H95.11C96.1028 121.26 97.0552 121.654 97.7582 122.355C98.4612 123.056 98.8573 124.007 98.86 125C98.86 125.995 98.4649 126.948 97.7616 127.652C97.0583 128.355 96.1045 128.75 95.11 128.75Z" fill="#A140FF"/>
<path d="M95.11 106.66H32.59C31.5981 106.66 30.6468 106.266 29.9454 105.565C29.244 104.863 28.85 103.912 28.85 102.92C28.85 101.927 29.2437 100.975 29.9448 100.272C30.6459 99.5689 31.5971 99.1727 32.59 99.17H95.11C96.1045 99.17 97.0583 99.565 97.7616 100.268C98.4649 100.972 98.86 101.925 98.86 102.92C98.86 103.412 98.7629 103.899 98.5743 104.354C98.3858 104.808 98.1093 105.221 97.761 105.568C97.4126 105.916 96.9992 106.191 96.5443 106.378C96.0894 106.566 95.602 106.661 95.11 106.66Z" fill="#A140FF"/>
<path d="M95.11 84.57H32.59C31.5981 84.57 30.6468 84.176 29.9454 83.4746C29.244 82.7732 28.85 81.8219 28.85 80.83C28.85 79.8381 29.244 78.8868 29.9454 78.1854C30.6468 77.4841 31.5981 77.09 32.59 77.09H95.11C95.602 77.0887 96.0894 77.1845 96.5443 77.3718C96.9992 77.5592 97.4126 77.8345 97.761 78.1819C98.1093 78.5293 98.3858 78.9421 98.5743 79.3965C98.7629 79.8509 98.86 80.338 98.86 80.83C98.86 81.322 98.7629 81.8092 98.5743 82.2636C98.3858 82.718 98.1093 83.1307 97.761 83.4782C97.4126 83.8256 96.9992 84.1009 96.5443 84.2882C96.0894 84.4756 95.602 84.5713 95.11 84.57Z" fill="#A140FF"/>
<path d="M123.15 152.52C119.785 152.517 116.559 151.18 114.18 148.8C111.8 146.421 110.463 143.195 110.46 139.83V127.14H135.83V139.83C135.827 143.193 134.491 146.418 132.114 148.797C129.737 151.176 126.513 152.515 123.15 152.52ZM116.95 133.63V139.83C116.953 141.473 117.607 143.049 118.769 144.211C119.931 145.373 121.506 146.027 123.15 146.03C124.794 146.027 126.369 145.373 127.531 144.211C128.693 143.049 129.347 141.473 129.35 139.83V133.63H116.95Z" fill="#A140FF"/>
<path d="M110.46 127.15H123.18V114.43H110.46V127.15Z" fill="#A140FF"/>
<path d="M123.14 114.44H135.86V101.72H123.14V114.44Z" fill="#A140FF"/>
<path d="M110.46 101.73H123.18V89.01H110.46V101.73Z" fill="#A140FF"/>
<path d="M123.14 89.02H135.86V76.3H123.14V89.02Z" fill="#A140FF"/>
</svg>
