<svg width="201" height="240" viewBox="0 0 201 240" fill="none" xmlns="http://www.w3.org/2000/svg">
<g opacity="0.3">
<path opacity="0.3" d="M140.53 49.24C135.062 49.2347 129.819 47.0609 125.952 43.1953C122.084 39.3297 119.908 34.0881 119.9 28.62V0H27.77C20.633 0 13.7883 2.83514 8.7417 7.88174C3.6951 12.9283 0.860107 19.773 0.860107 26.91V189.13C0.870706 196.26 3.7104 203.094 8.75586 208.132C13.8013 213.17 20.64 216 27.77 216H138.37C145.507 216 152.352 213.165 157.398 208.118C162.445 203.072 165.28 196.227 165.28 189.09V49.24H140.53Z" fill="#FF9908"/>
</g>
<path d="M165.28 49.24H140.53C135.062 49.2347 129.819 47.0609 125.952 43.1953C122.084 39.3297 119.908 34.0881 119.9 28.62V0L165.28 49.24Z" fill="#FF9908"/>
<path d="M184.8 170.6H59.76C50.8903 170.6 43.7 177.79 43.7 186.66V223.94C43.7 232.81 50.8903 240 59.76 240H184.8C193.67 240 200.86 232.81 200.86 223.94V186.66C200.86 177.79 193.67 170.6 184.8 170.6Z" fill="#FF9908"/>
<path d="M86.76 213.37V220.64H79.23V213.37H86.76Z" fill="white"/>
<path d="M106 220.64L99.49 209.28H97.8301V220.64H90.5601V190.57H103C105.068 190.512 107.121 190.933 109 191.8C110.542 192.533 111.83 193.71 112.7 195.18C113.537 196.683 113.962 198.38 113.93 200.1C113.986 202.108 113.351 204.075 112.13 205.67C110.784 207.285 108.929 208.395 106.87 208.82L114.02 220.64H106ZM97.8301 204.31H102.34C103.492 204.396 104.634 204.039 105.53 203.31C105.885 202.934 106.158 202.488 106.33 202.001C106.502 201.513 106.57 200.995 106.53 200.48C106.565 199.969 106.495 199.457 106.323 198.975C106.151 198.493 105.881 198.052 105.53 197.68C105.094 197.312 104.589 197.034 104.045 196.863C103.501 196.691 102.928 196.629 102.36 196.68H97.8501L97.8301 204.31Z" fill="white"/>
<path d="M138 216.56C137.133 217.941 135.892 219.048 134.42 219.75C132.632 220.588 130.673 220.996 128.7 220.94C125.726 221.063 122.796 220.194 120.37 218.47C119.293 217.666 118.411 216.628 117.791 215.435C117.171 214.242 116.829 212.924 116.79 211.58H124.53C124.589 212.594 125.024 213.55 125.75 214.26C126.467 214.93 127.419 215.289 128.4 215.26C129.212 215.304 130.009 215.027 130.62 214.49C130.884 214.229 131.09 213.917 131.228 213.573C131.366 213.229 131.431 212.86 131.42 212.49C131.431 212.138 131.372 211.788 131.244 211.46C131.117 211.132 130.925 210.832 130.68 210.58C130.149 210.046 129.521 209.619 128.83 209.32C128.09 209 127.07 208.61 125.77 208.15C124.176 207.625 122.62 206.993 121.11 206.26C119.872 205.618 118.808 204.684 118.01 203.54C117.089 202.151 116.633 200.505 116.71 198.84C116.668 197.189 117.144 195.567 118.07 194.2C119.018 192.868 120.321 191.829 121.83 191.2C123.579 190.494 125.454 190.154 127.34 190.2C130.202 190.045 133.029 190.886 135.34 192.58C136.32 193.381 137.124 194.376 137.698 195.504C138.273 196.632 138.608 197.866 138.68 199.13H130.81C130.712 198.246 130.33 197.418 129.72 196.77C129.406 196.473 129.035 196.242 128.629 196.093C128.224 195.943 127.792 195.878 127.36 195.9C126.613 195.862 125.878 196.104 125.3 196.58C125.027 196.833 124.815 197.144 124.678 197.49C124.541 197.836 124.484 198.209 124.51 198.58C124.499 199.251 124.75 199.901 125.21 200.39C125.714 200.907 126.316 201.318 126.98 201.6C127.69 201.91 128.71 202.31 130.04 202.79C131.661 203.314 133.239 203.962 134.76 204.73C136.015 205.395 137.094 206.348 137.91 207.51C138.843 208.921 139.305 210.59 139.23 212.28C139.213 213.791 138.788 215.27 138 216.56Z" fill="white"/>
<path d="M163.63 216.56C162.764 217.939 161.527 219.045 160.06 219.75C158.273 220.588 156.313 220.996 154.34 220.94C151.363 221.063 148.43 220.194 146 218.47C144.925 217.664 144.046 216.625 143.428 215.432C142.81 214.24 142.469 212.923 142.43 211.58H150.17C150.225 212.593 150.657 213.549 151.38 214.26C152.101 214.929 153.056 215.289 154.04 215.26C154.849 215.304 155.643 215.027 156.25 214.49C156.517 214.231 156.726 213.92 156.866 213.575C157.005 213.231 157.072 212.861 157.06 212.49C157.069 212.138 157.008 211.789 156.881 211.461C156.754 211.133 156.563 210.834 156.32 210.58C155.788 210.048 155.16 209.62 154.47 209.32C153.73 209 152.71 208.61 151.4 208.15C149.809 207.627 148.255 206.995 146.75 206.26C145.509 205.618 144.441 204.685 143.64 203.54C142.726 202.148 142.275 200.503 142.35 198.84C142.308 197.189 142.783 195.567 143.71 194.2C144.656 192.866 145.959 191.826 147.47 191.2C149.219 190.494 151.094 190.154 152.98 190.2C155.842 190.044 158.669 190.885 160.98 192.58C161.962 193.379 162.767 194.374 163.342 195.502C163.917 196.63 164.25 197.866 164.32 199.13H156.45C156.362 198.245 155.982 197.415 155.37 196.77C155.056 196.473 154.685 196.242 154.279 196.093C153.874 195.943 153.442 195.877 153.01 195.9C152.262 195.862 151.528 196.104 150.95 196.58C150.677 196.833 150.465 197.144 150.328 197.49C150.191 197.836 150.134 198.209 150.16 198.58C150.144 199.252 150.396 199.903 150.86 200.39C151.364 200.907 151.965 201.318 152.63 201.6C153.33 201.91 154.35 202.31 155.69 202.79C157.311 203.314 158.889 203.962 160.41 204.73C161.664 205.395 162.744 206.348 163.56 207.51C164.493 208.92 164.955 210.59 164.88 212.28C164.86 213.794 164.428 215.274 163.63 216.56Z" fill="white"/>
<path d="M58.72 139.61C62.724 139.61 65.97 136.364 65.97 132.36C65.97 128.356 62.724 125.11 58.72 125.11C54.7159 125.11 51.47 128.356 51.47 132.36C51.47 136.364 54.7159 139.61 58.72 139.61Z" fill="#FF9908"/>
<path d="M51.47 97V106.45C60.264 106.461 68.6948 109.959 74.9131 116.177C81.1314 122.395 84.6293 130.826 84.6399 139.62H94.0901C94.0769 128.321 89.5822 117.488 81.5923 109.498C73.6024 101.508 62.7694 97.0132 51.47 97Z" fill="#FF9908"/>
<path d="M114.67 139.61H105.22C105.204 125.359 99.5361 111.697 89.4595 101.62C79.3828 91.5438 65.7205 85.8758 51.47 85.8599V76.4099C68.226 76.4284 84.2904 83.0929 96.1387 94.9412C107.987 106.79 114.651 122.854 114.67 139.61Z" fill="#FF9908"/>
</svg>
